<svg width="2111" height="2655" viewBox="0 0 2111 2655" fill="none" xmlns="http://www.w3.org/2000/svg">
<path d="M152.669 1616.37V1519.34C148.401 1513.48 142.395 1508.39 142.395 1501.65C142.395 1494.6 138.798 1473.61 143.156 1468.16C148.747 1461.17 145.82 1445.69 145.82 1436.58C145.82 1424.46 150.31 1415.52 152.859 1404.05C155.008 1394.38 177.687 1371.51 188.628 1371.51C206.607 1371.51 229.783 1363.56 248.178 1361.05C266.623 1358.53 280.525 1354.39 299.357 1354.39C322.382 1354.39 339.267 1364.71 346.16 1386.92C355.08 1415.67 371.094 1440.32 376.601 1470.83C385.474 1519.97 404.936 1565.17 414.842 1613.9C434.092 1708.59 449.997 1806.24 474.583 1899.66C494.897 1976.86 539.343 2050.35 599.772 2102.86C627.032 2126.54 654.846 2143.99 685.387 2162.6C709.053 2177.01 730.552 2195.05 757.685 2202.93C802.088 2215.82 839.41 2237.94 886.869 2237.94C908.772 2237.94 925.746 2210.44 935.004 2193.61C949.038 2168.09 964.26 2143.13 973.816 2115.41C981.886 2092.01 981.304 2068.42 995.125 2046.92C1009.23 2024.98 1015.98 2020.31 1041.36 2013.63C1064.77 2007.47 1079.88 2001.81 1103.19 2010.2C1116.02 2014.82 1126.17 2014.91 1135.34 2025.61C1142.99 2034.53 1148.64 2046.06 1154.37 2056.24C1178.85 2099.77 1187.59 2144.79 1232.18 2172.87C1253.87 2186.52 1301.78 2175.64 1322.18 2164.31C1353.47 2146.93 1387.66 2134.59 1419.78 2118.08C1442.05 2106.62 1464.25 2095.08 1486.75 2083.83C1503.06 2075.68 1526.33 2065.62 1539.64 2053.01C1564.79 2029.18 1575.41 1998.95 1595.95 1972.53C1622.01 1939.03 1637.58 1898.22 1656.08 1861.23C1674.28 1824.82 1698.61 1778.37 1704.02 1737.76C1708.29 1705.71 1717.72 1676.52 1717.72 1643.96V1566.9C1717.72 1516.06 1719.19 1468.05 1726.09 1417.74C1731.68 1376.99 1738.76 1339.03 1763 1304.92C1775.55 1287.26 1781.07 1277.17 1799.15 1265.35C1814.87 1255.07 1835.65 1271.06 1849.38 1278.29C1880.71 1294.78 1905.21 1318.8 1921.29 1350.96C1924.74 1357.86 1931.13 1371.23 1938.61 1374.56C1941.88 1376.01 1952.6 1372.54 1953.83 1376.84C1957.37 1389.23 1960.05 1401.28 1962.77 1414.89C1972.57 1463.89 1969.73 1494.09 1958.2 1542.74C1948.91 1581.97 1940.82 1622.18 1932.71 1661.84C1926.04 1694.46 1916.59 1724.68 1907.97 1756.78C1879.82 1861.74 1836.65 1960.85 1801.43 2063.66L1801.29 2064.07C1777.38 2133.88 1754.09 2201.85 1716.96 2265.34C1677.3 2333.14 1633.55 2393.71 1567.04 2438.47C1515.91 2472.87 1463.59 2511.04 1405.32 2531.7C1354.99 2549.53 1305.85 2562.53 1253.87 2575.07C1181.71 2592.49 1110.56 2597.52 1036.22 2597.52C931.527 2597.52 819.554 2580.58 721.916 2541.21C659.044 2515.86 591.876 2497.61 530.709 2468.53L530.092 2468.24C468.399 2438.91 400.222 2406.5 354.721 2354C298.756 2289.42 255.23 2222.5 239.046 2136.72C233.763 2108.72 227.49 2080.66 220.4 2053.01C209.52 2010.58 207.361 1963.85 193.574 1922.49C181.706 1886.89 181.301 1854.15 179.876 1817.09C178.566 1783.04 168.257 1749.93 164.655 1716.07C161.051 1682.19 152.669 1650.81 152.669 1616.37Z" fill="black"/>
<path d="M152.669 1487.95C152.669 1530.76 152.669 1573.56 152.669 1616.37C152.669 1650.81 161.051 1682.19 164.655 1716.07C168.257 1749.93 178.566 1783.04 179.876 1817.09C181.301 1854.15 181.706 1886.89 193.574 1922.49C207.361 1963.85 209.52 2010.58 220.4 2053.01C227.49 2080.66 233.763 2108.72 239.046 2136.72C255.23 2222.5 298.756 2289.42 354.721 2354C400.373 2406.67 468.854 2439.12 530.709 2468.53C591.876 2497.61 659.044 2515.86 721.916 2541.21C819.554 2580.58 931.527 2597.52 1036.22 2597.52C1110.56 2597.52 1181.71 2592.49 1253.87 2575.07C1305.85 2562.53 1354.99 2549.53 1405.32 2531.7C1463.59 2511.04 1515.91 2472.87 1567.04 2438.47C1633.55 2393.71 1677.3 2333.14 1716.96 2265.34C1754.16 2201.73 1777.47 2133.61 1801.43 2063.66C1836.65 1960.85 1879.82 1861.74 1907.97 1756.78C1916.59 1724.68 1926.04 1694.46 1932.71 1661.84C1940.82 1622.18 1948.91 1581.97 1958.2 1542.74C1969.73 1494.09 1972.57 1463.89 1962.77 1414.89C1960.05 1401.28 1957.37 1389.23 1953.83 1376.84C1952.6 1372.54 1941.88 1376.01 1938.61 1374.56C1931.13 1371.23 1924.74 1357.86 1921.29 1350.96C1905.21 1318.8 1880.71 1294.78 1849.38 1278.29C1835.65 1271.06 1814.87 1255.07 1799.15 1265.35C1781.07 1277.17 1775.55 1287.26 1763 1304.92C1738.76 1339.03 1731.68 1376.99 1726.09 1417.74C1719.19 1468.05 1717.72 1516.06 1717.72 1566.9C1717.72 1592.59 1717.72 1618.27 1717.72 1643.96C1717.72 1676.52 1708.29 1705.71 1704.02 1737.76C1698.61 1778.37 1674.28 1824.82 1656.08 1861.23C1637.58 1898.22 1622.01 1939.03 1595.95 1972.53C1575.41 1998.95 1564.79 2029.18 1539.64 2053.01C1526.33 2065.62 1503.06 2075.68 1486.75 2083.83C1464.25 2095.08 1442.05 2106.62 1419.78 2118.08C1387.66 2134.59 1353.47 2146.93 1322.18 2164.31C1301.78 2175.64 1253.87 2186.52 1232.18 2172.87C1187.59 2144.79 1178.85 2099.77 1154.37 2056.24C1148.64 2046.06 1142.99 2034.53 1135.34 2025.61C1126.17 2014.91 1116.02 2014.82 1103.19 2010.2C1079.88 2001.81 1064.77 2007.47 1041.36 2013.63C1015.98 2020.31 1009.23 2024.98 995.125 2046.92C981.304 2068.42 981.886 2092.01 973.816 2115.41C964.26 2143.13 949.038 2168.09 935.004 2193.61C925.746 2210.44 908.772 2237.94 886.869 2237.94C839.41 2237.94 802.088 2215.82 757.685 2202.93C730.552 2195.05 709.053 2177.01 685.387 2162.6C654.846 2143.99 627.032 2126.54 599.772 2102.86C539.343 2050.35 494.897 1976.86 474.583 1899.66C449.997 1806.24 434.092 1708.59 414.842 1613.9C404.936 1565.17 385.474 1519.97 376.601 1470.83C371.094 1440.32 355.08 1415.67 346.16 1386.92C339.267 1364.71 322.382 1354.39 299.357 1354.39C280.525 1354.39 266.623 1358.53 248.178 1361.05C229.783 1363.56 206.607 1371.51 188.628 1371.51C177.687 1371.51 155.008 1394.38 152.859 1404.05C150.31 1415.52 145.82 1424.46 145.82 1436.58C145.82 1445.69 148.747 1461.17 143.156 1468.16C138.798 1473.61 142.395 1494.6 142.395 1501.65C142.395 1510.67 153.129 1516.72 156.094 1525.62" stroke="white" stroke-width="3" stroke-linecap="round"/>
</svg>
