<svg width="2111" height="2655" viewBox="0 0 2111 2655" fill="none" xmlns="http://www.w3.org/2000/svg">
<path d="M201.867 1433.91C195.909 1406.77 201.469 1382.92 207.708 1358.49C211.682 1357.09 215.811 1355.39 219.125 1353.5C223.04 1347.64 226.93 1343.06 225.681 1347.23C225.012 1349.46 222.489 1351.58 219.125 1353.5C216.424 1357.54 213.709 1362.2 212.662 1365.01C211.147 1369.08 205.275 1376.53 212.504 1375.8C242.556 1372.8 272.015 1362.33 300.615 1353.26C306.269 1351.47 326.97 1339.98 326.97 1352.62V1372.47C326.97 1384.45 327.657 1396.64 325.699 1408.51C324.206 1417.56 320.377 1426.81 321.413 1436.13C323.218 1452.38 326.97 1468 326.97 1484.71C326.97 1502.09 339.161 1513.33 355.388 1519C362.618 1521.54 378.608 1519.44 383.488 1526.31C389.249 1534.42 390.213 1545.61 394.284 1554.57C401.268 1569.93 420.152 1580.42 432.069 1591.4C455.906 1613.37 476.369 1638.72 496.208 1664.27C507.872 1679.3 522.668 1696.22 527.96 1714.91C535.305 1740.87 515.966 1759.76 503.193 1780.32C489.703 1802.05 506.628 1808.28 514.941 1829.06C522.033 1846.79 513.889 1850.5 508.591 1864.47C497.169 1894.58 514.116 1932.51 541.296 1947.34C548.858 1951.46 584.857 1964.33 585.748 1973.69C586.466 1981.23 573.076 1988.48 575.747 1997.83C576.446 2000.27 621.927 2005.32 629.09 2009.26C641.898 2016.3 619.901 2036.59 622.581 2045.29C622.783 2045.95 665.506 2040.11 667.034 2040.06C701.258 2038.75 735.857 2040.14 769.751 2045.14C795.936 2048.99 809.883 2047.44 796.264 2074.03C788.455 2089.28 777.085 2091.31 774.038 2110.54C772.006 2123.37 770.914 2136.63 785.469 2139.28C794.637 2140.95 811.342 2113.62 814.68 2109.27C831.224 2087.74 845.77 2063.49 864.69 2043.87C873.71 2034.51 872.343 2063.03 876.279 2067.36C884.037 2075.9 890.112 2083.46 896.124 2094.03C906.698 2112.64 912.75 2138.24 926.448 2154.68C930.801 2159.9 942.27 2143.31 947.086 2142.3C958.4 2139.91 964.138 2118.55 973.44 2112.13C980.808 2107.05 987.874 2115.76 986.935 2103.08C984.302 2067.53 998.525 2035.58 998.525 1999.41C998.525 1993.25 996.9 1959.78 1001.38 1975.92C1002.36 1979.44 1001.67 1986.76 1002.02 1985.44C1004.31 1976.84 1009.79 1968.89 1013.13 1960.68C1022.1 1938.61 1028.05 1917.16 1039.8 1897.01C1040.23 1896.28 1052.68 1930.53 1049.96 1940.04C1048.2 1946.19 1063.62 1905.91 1064.25 1907.01C1070.49 1917.93 1074.47 1905.44 1080.76 1898.12C1098.19 1877.86 1111.41 1917.87 1116.32 1932.1C1120.12 1943.1 1126.98 1939.77 1124.9 1942.89C1123.4 1945.14 1123.83 1953.63 1124.42 1950.99C1124.91 1948.8 1126.52 1932.99 1131.25 1937.5C1156.66 1961.73 1172.33 1996.33 1199.51 2019.89C1203.27 2023.15 1218.15 2008.78 1218.41 2010.21C1221.05 2024.73 1215.41 2043.76 1212.85 2057.84C1211.63 2064.53 1203.65 2085.09 1208.56 2091.97C1212.71 2097.78 1219.61 2120.71 1227.77 2117.37C1234.13 2114.77 1271.28 2082.24 1272.23 2083.56C1282.45 2097.7 1290.09 2124.63 1309.38 2108C1312.04 2105.71 1324.3 2087.45 1324.3 2095.46C1324.3 2127.39 1344.53 2075.14 1348.91 2067.68C1360.88 2047.27 1374.48 2020.62 1393.52 2005.13C1401.38 1998.73 1411.17 1993.7 1421.46 1993.7C1432.27 1993.7 1433.31 1968.13 1437.65 1960.04C1449.2 1938.52 1465.12 1934.06 1481.79 1919.24C1502.99 1900.39 1503.41 1924.1 1518.62 1933.05C1520.16 1933.95 1520.07 1936.91 1521.8 1937.34C1525.86 1938.35 1535.03 1911.45 1535.77 1909.55C1544.51 1887.21 1543.47 1880.18 1565.46 1882.09C1581.51 1883.48 1572.92 1833.43 1572.92 1823.35C1572.92 1809.86 1572.79 1796.36 1572.92 1782.86C1572.94 1780.63 1572.03 1774.56 1573.55 1776.2C1583.7 1787.13 1590.61 1808.26 1598 1821.28C1601.43 1827.31 1610.33 1845.83 1608.8 1839.07C1604.01 1817.85 1608.36 1798.45 1614.83 1777.94C1621 1758.36 1629.86 1725.51 1650.08 1714.28C1661.71 1707.82 1658.35 1703.67 1660.55 1688.88C1663.83 1666.86 1668.14 1645.02 1671.35 1622.99C1671.55 1621.64 1671.74 1607.78 1674.05 1611.24C1677.71 1616.74 1717.47 1672.38 1718.5 1659.51C1719.84 1642.77 1716 1625.93 1713.58 1609.5C1712.33 1601.02 1707.83 1583.8 1712.94 1575.52C1717.41 1568.29 1757.65 1579.11 1751.68 1570.44C1743.85 1559.08 1742.19 1546.66 1741.68 1533.13C1741.14 1518.77 1743.2 1523.2 1753.59 1527.9C1755.67 1528.84 1770.16 1536.91 1769.62 1530.75C1767.21 1503.03 1759.01 1474.47 1753.59 1447.25C1748.82 1423.35 1742.97 1400 1736.28 1376.6C1735.08 1372.37 1738.04 1378.39 1738.82 1379.3C1752.37 1395.11 1781.06 1397.68 1787.24 1420.89C1800.25 1469.66 1839.44 1515.55 1874.4 1549.65C1894.84 1569.57 1919.06 1584.94 1939.65 1604.42C1945.64 1610.08 1927.85 1607.62 1927.43 1607.59C1905.05 1605.97 1882.61 1601.25 1860.59 1597.11C1844.77 1594.14 1854.51 1595.41 1862.5 1599.65C1893.17 1615.96 1921.13 1638.6 1945.05 1663.64C1947.38 1666.07 1970.94 1687.8 1966.64 1695.23C1964.37 1699.15 1954.5 1695.03 1950.93 1698.24C1946.4 1702.32 1958.81 1723.29 1959.98 1726.03C1964.61 1736.88 2000.21 1822.5 1971.72 1825.09C1947.82 1827.27 1904.77 1820.08 1887.58 1840.49C1870.05 1861.31 1874.54 1902.13 1872.34 1927.02C1869.56 1958.51 1866.99 1992.19 1857.58 2022.59C1854.74 2031.74 1838.44 2030.79 1831.06 2032.12C1805.97 2036.63 1780.8 2040.73 1755.81 2045.77C1745.37 2047.88 1718.24 2048.26 1709.45 2055.46C1703.43 2060.38 1752.54 2102.98 1754.22 2104.51C1791.37 2138.32 1834.07 2168.82 1864.08 2209.61C1868.46 2215.56 1879.58 2233.96 1873.61 2229.61C1861.33 2220.68 1854.23 2209.28 1839.64 2202.31C1814.1 2190.11 1783.91 2180.09 1755.49 2178.97C1738.2 2178.29 1735.87 2187 1731.81 2202.12L1731.68 2202.63C1720.29 2245.11 1713.35 2288.79 1702.94 2331.54C1699.62 2345.18 1687.73 2436.65 1657.54 2419.97C1637.12 2408.69 1620.89 2393.11 1598.96 2383.93C1568.64 2371.24 1536.11 2361.16 1504.02 2354.08C1481.97 2349.22 1482.82 2352.73 1496.4 2366.31C1517.3 2387.21 1530.29 2414.41 1533.55 2443.94C1535.49 2461.59 1531.75 2558.15 1497.51 2519.83C1466.29 2484.89 1428.14 2445.48 1383.84 2427.43C1364.57 2419.58 1324.71 2473.11 1316.04 2483.95C1306.95 2495.31 1279.99 2550.17 1258.57 2528.4C1230.06 2499.41 1211.17 2455.46 1171.89 2437.91C1164.18 2434.46 1146.27 2488.63 1142.04 2496.33C1132.68 2513.39 1134.8 2481.11 1128.07 2473.31C1104.57 2446.04 1047.94 2562.61 1018.53 2529.99C1004.52 2514.45 997.812 2489.79 989.158 2471.09C987.167 2466.79 982.464 2451.57 975.663 2450.93C964.902 2449.9 947.11 2457.74 937.719 2460.29C906.116 2468.89 875.482 2479.62 845.004 2491.57C826.104 2498.98 806.422 2516.5 802.615 2490.93C794.334 2435.34 785.258 2375.51 765.782 2322.65C759.15 2304.65 746.412 2316.34 734.03 2323.92C709.873 2338.71 687.462 2355.06 661.159 2365.99C653.978 2368.97 643.735 2377.34 640.679 2366.78C631.801 2336.11 628.235 2304.1 614.643 2275.02C604.623 2253.58 594.606 2258.36 570.507 2262.95C547.485 2267.35 525.416 2275.97 504.305 2285.97C503.371 2286.42 488.428 2295.7 487 2295.34C482.026 2294.1 485.237 2275.68 485.73 2273.43C489.472 2256.33 497.455 2240.49 502.876 2223.9C504.974 2217.48 520.475 2178.46 513.354 2171.98C507.848 2166.98 471.529 2182.27 465.726 2183.89L464.219 2184.31C446.808 2189.2 429.107 2194.16 411.112 2196.28C388.114 2198.98 395.554 2158.03 395.554 2144.36C395.554 2085.43 392.359 2026.15 403.492 1967.98C407.481 1947.14 414.895 1938.07 392.537 1951.78C365.885 1968.13 339.394 1984.55 312.046 1999.73C298.839 2007.06 285.716 2016.53 272.039 2022.91C267.653 2024.96 271.854 2013.32 271.88 2013.22C288.496 1953.15 314.77 1895.89 350.625 1844.78C355.178 1838.29 369.014 1821.85 361.262 1823.51C347.6 1826.43 329.839 1842.19 318.079 1848.59C311.882 1851.96 216.397 1901.33 213.297 1889.55C204.557 1856.34 218.937 1817.91 235.841 1789.85C247.146 1771.09 260.991 1756.42 275.373 1740.32C284.066 1730.58 243.986 1749.13 242.509 1749.84C203.435 1768.59 168.131 1798.47 128.043 1814.3C118.923 1817.9 117.498 1814.17 120.264 1805.41C128.273 1780.05 141.984 1755.09 155.826 1732.54C169.859 1709.68 185.984 1688.64 204.407 1669.19C206.548 1666.93 212.695 1660.42 209.805 1661.57C204.773 1663.58 175.83 1669.74 175.83 1662.84C175.83 1651.43 183.391 1639.31 187.578 1629.18C197.637 1604.85 207.633 1581.85 222.505 1559.96C232.697 1544.97 242.71 1533.08 258.068 1523.45C264.078 1519.68 263.117 1518.66 256.956 1521.54C235.779 1531.47 215.6 1543.5 195.199 1554.88C178.674 1564.11 159.145 1579.46 140.585 1584.41C135.555 1585.76 140.059 1568.32 140.268 1567.59C145.108 1550.64 155.595 1537.21 169.797 1526.94C184.253 1516.5 201.112 1510.98 217.743 1505.19C218.63 1504.88 232.317 1501.49 230.443 1498.68C217.241 1478.88 206.991 1457.26 201.867 1433.91Z" fill="black"/>
<path d="M215.52 1325C208.75 1362.23 193.243 1394.62 201.867 1433.91C206.991 1457.26 217.241 1478.88 230.443 1498.68C232.317 1501.49 218.63 1504.88 217.743 1505.19C201.112 1510.98 184.253 1516.5 169.797 1526.94C155.595 1537.21 145.108 1550.64 140.268 1567.59C140.059 1568.32 135.555 1585.76 140.585 1584.41C159.145 1579.46 178.674 1564.11 195.199 1554.88C215.6 1543.5 235.779 1531.47 256.956 1521.54C263.117 1518.66 264.078 1519.68 258.068 1523.45C242.71 1533.08 232.697 1544.97 222.505 1559.96C207.633 1581.85 197.637 1604.85 187.578 1629.18C183.391 1639.31 175.83 1651.43 175.83 1662.84C175.83 1669.74 204.773 1663.58 209.805 1661.57C212.695 1660.42 206.548 1666.93 204.407 1669.19C185.984 1688.64 169.859 1709.68 155.826 1732.54C141.984 1755.09 128.273 1780.05 120.264 1805.41C117.498 1814.17 118.923 1817.9 128.043 1814.3C168.131 1798.47 203.435 1768.59 242.509 1749.84C243.986 1749.13 284.066 1730.58 275.373 1740.32C260.991 1756.42 247.146 1771.09 235.841 1789.85C218.937 1817.91 204.557 1856.34 213.297 1889.55C216.397 1901.33 311.882 1851.96 318.079 1848.59C329.839 1842.19 347.6 1826.43 361.262 1823.51C369.014 1821.85 355.178 1838.29 350.625 1844.78C314.77 1895.89 288.496 1953.15 271.88 2013.22C271.854 2013.32 267.653 2024.96 272.039 2022.91C285.716 2016.53 298.839 2007.06 312.046 1999.73C339.394 1984.55 365.885 1968.13 392.537 1951.78C414.895 1938.07 407.481 1947.14 403.492 1967.98C392.359 2026.15 395.554 2085.43 395.554 2144.36C395.554 2158.03 388.114 2198.98 411.112 2196.28C429.627 2194.1 447.83 2188.91 465.726 2183.89C471.529 2182.27 507.848 2166.98 513.354 2171.98C520.475 2178.46 504.974 2217.48 502.876 2223.9C497.455 2240.49 489.472 2256.33 485.73 2273.43C485.237 2275.68 482.026 2294.1 487 2295.34C488.428 2295.7 503.371 2286.42 504.305 2285.97C525.416 2275.97 547.485 2267.35 570.507 2262.95C594.606 2258.36 604.623 2253.58 614.643 2275.02C628.235 2304.1 631.801 2336.11 640.679 2366.78C643.735 2377.34 653.978 2368.97 661.159 2365.99C687.462 2355.06 709.873 2338.71 734.03 2323.92C746.412 2316.34 759.15 2304.65 765.782 2322.65C785.258 2375.51 794.334 2435.34 802.615 2490.93C806.422 2516.5 826.104 2498.98 845.004 2491.57C875.482 2479.62 906.116 2468.89 937.719 2460.29C947.11 2457.74 964.902 2449.9 975.663 2450.93C982.464 2451.57 987.167 2466.79 989.158 2471.09C997.812 2489.79 1004.52 2514.45 1018.53 2529.99C1047.94 2562.61 1104.57 2446.04 1128.07 2473.31C1134.8 2481.11 1132.68 2513.39 1142.04 2496.33C1146.27 2488.63 1164.18 2434.46 1171.89 2437.91C1211.17 2455.46 1230.06 2499.41 1258.57 2528.4C1279.99 2550.17 1306.95 2495.31 1316.04 2483.95C1324.71 2473.11 1364.57 2419.58 1383.84 2427.43C1428.14 2445.48 1466.29 2484.89 1497.51 2519.83C1531.75 2558.15 1535.49 2461.59 1533.55 2443.94C1530.29 2414.41 1517.3 2387.21 1496.4 2366.31C1482.82 2352.73 1481.97 2349.22 1504.02 2354.08C1536.11 2361.16 1568.64 2371.24 1598.96 2383.93C1620.89 2393.11 1637.12 2408.69 1657.54 2419.97C1687.73 2436.65 1699.62 2345.18 1702.94 2331.54C1713.35 2288.79 1720.29 2245.11 1731.68 2202.63C1735.82 2187.19 1738.01 2178.28 1755.49 2178.97C1783.91 2180.09 1814.1 2190.11 1839.64 2202.31C1854.23 2209.28 1861.33 2220.68 1873.61 2229.61C1879.58 2233.96 1868.46 2215.56 1864.08 2209.61C1834.07 2168.82 1791.37 2138.32 1754.22 2104.51C1752.54 2102.98 1703.43 2060.38 1709.45 2055.46C1718.24 2048.26 1745.37 2047.88 1755.81 2045.77C1780.8 2040.73 1805.97 2036.63 1831.06 2032.12C1838.44 2030.79 1854.74 2031.74 1857.58 2022.59C1866.99 1992.19 1869.56 1958.51 1872.34 1927.02C1874.54 1902.13 1870.05 1861.31 1887.58 1840.49C1904.77 1820.08 1947.82 1827.27 1971.72 1825.09C2000.21 1822.5 1964.61 1736.88 1959.98 1726.03C1958.81 1723.29 1946.4 1702.32 1950.93 1698.24C1954.5 1695.03 1964.37 1699.15 1966.64 1695.23C1970.94 1687.8 1947.38 1666.07 1945.05 1663.64C1921.13 1638.6 1893.17 1615.96 1862.5 1599.65C1854.51 1595.41 1844.77 1594.14 1860.59 1597.11C1882.61 1601.25 1905.05 1605.97 1927.43 1607.59C1927.85 1607.62 1945.64 1610.08 1939.65 1604.42C1919.06 1584.94 1894.84 1569.57 1874.4 1549.65C1839.44 1515.55 1800.25 1469.66 1787.24 1420.89C1781.06 1397.68 1752.37 1395.11 1738.82 1379.3C1738.04 1378.39 1735.08 1372.37 1736.28 1376.6C1742.97 1400 1748.82 1423.35 1753.59 1447.25C1759.01 1474.47 1767.21 1503.03 1769.62 1530.75C1770.16 1536.91 1755.67 1528.84 1753.59 1527.9C1743.2 1523.2 1741.14 1518.77 1741.68 1533.13C1742.19 1546.66 1743.85 1559.08 1751.68 1570.44C1757.65 1579.11 1717.41 1568.29 1712.94 1575.52C1707.83 1583.8 1712.33 1601.02 1713.58 1609.5C1716 1625.93 1719.84 1642.77 1718.5 1659.51C1717.47 1672.38 1677.71 1616.74 1674.05 1611.24C1671.74 1607.78 1671.55 1621.64 1671.35 1622.99C1668.14 1645.02 1663.83 1666.86 1660.55 1688.88C1658.35 1703.67 1661.71 1707.82 1650.08 1714.28C1629.86 1725.51 1621 1758.36 1614.83 1777.94C1608.36 1798.45 1604.01 1817.85 1608.8 1839.07C1610.33 1845.83 1601.43 1827.31 1598 1821.28C1590.61 1808.26 1583.7 1787.13 1573.55 1776.2C1572.03 1774.56 1572.94 1780.63 1572.92 1782.86C1572.79 1796.36 1572.92 1809.86 1572.92 1823.35C1572.92 1833.43 1581.51 1883.49 1565.46 1882.09C1543.47 1880.18 1544.51 1887.21 1535.77 1909.55C1535.03 1911.45 1525.86 1938.35 1521.8 1937.34C1520.07 1936.91 1520.16 1933.95 1518.62 1933.05C1503.41 1924.1 1502.99 1900.39 1481.79 1919.24C1465.12 1934.06 1449.2 1938.52 1437.65 1960.04C1433.31 1968.13 1432.27 1993.7 1421.46 1993.7C1411.17 1993.7 1401.38 1998.73 1393.52 2005.13C1374.48 2020.62 1360.88 2047.27 1348.91 2067.68C1344.53 2075.14 1324.3 2127.39 1324.3 2095.46C1324.3 2087.45 1312.04 2105.71 1309.38 2108C1290.09 2124.63 1282.45 2097.7 1272.23 2083.56C1271.28 2082.24 1234.13 2114.77 1227.77 2117.37C1219.61 2120.71 1212.71 2097.78 1208.56 2091.97C1203.65 2085.09 1211.63 2064.53 1212.85 2057.84C1215.41 2043.76 1221.05 2024.73 1218.41 2010.21C1218.15 2008.78 1203.27 2023.15 1199.51 2019.89C1172.33 1996.33 1156.66 1961.73 1131.25 1937.5C1126.52 1932.99 1124.91 1948.8 1124.42 1950.99C1123.83 1953.63 1123.4 1945.14 1124.9 1942.89C1126.98 1939.77 1120.12 1943.1 1116.32 1932.1C1111.41 1917.87 1098.19 1877.86 1080.76 1898.12C1074.47 1905.44 1070.49 1917.93 1064.25 1907.01C1063.62 1905.91 1048.2 1946.19 1049.96 1940.04C1052.68 1930.53 1040.23 1896.28 1039.8 1897.01C1028.05 1917.16 1022.1 1938.61 1013.13 1960.68C1009.79 1968.89 1004.31 1976.84 1002.02 1985.44C1001.67 1986.76 1002.36 1979.44 1001.38 1975.92C996.9 1959.78 998.525 1993.25 998.525 1999.41C998.525 2035.58 984.302 2067.53 986.935 2103.08C987.874 2115.76 980.808 2107.05 973.44 2112.13C964.137 2118.55 958.4 2139.91 947.086 2142.3C942.27 2143.31 930.801 2159.9 926.448 2154.68C912.75 2138.24 906.698 2112.64 896.124 2094.03C890.112 2083.46 884.037 2075.9 876.279 2067.36C872.343 2063.03 873.71 2034.51 864.69 2043.87C845.77 2063.49 831.224 2087.74 814.68 2109.27C811.342 2113.62 794.637 2140.95 785.469 2139.28C770.914 2136.63 772.006 2123.37 774.038 2110.54C777.085 2091.31 788.455 2089.28 796.264 2074.03C809.883 2047.44 795.936 2048.99 769.751 2045.14C735.857 2040.14 701.258 2038.75 667.034 2040.06C665.506 2040.11 622.783 2045.95 622.581 2045.29C619.901 2036.59 641.898 2016.3 629.09 2009.26C621.927 2005.32 576.446 2000.27 575.747 1997.83C573.076 1988.48 586.466 1981.23 585.748 1973.69C584.857 1964.33 548.858 1951.46 541.296 1947.34C514.116 1932.51 497.169 1894.58 508.591 1864.47C513.889 1850.5 522.033 1846.79 514.941 1829.06C506.628 1808.28 489.703 1802.05 503.193 1780.32C515.967 1759.76 535.305 1740.87 527.96 1714.91C522.668 1696.22 507.872 1679.3 496.208 1664.27C476.369 1638.72 455.906 1613.37 432.069 1591.4C420.152 1580.42 401.268 1569.93 394.284 1554.57C390.213 1545.61 389.249 1534.42 383.488 1526.31C378.608 1519.44 362.618 1521.54 355.388 1519C339.161 1513.33 326.97 1502.09 326.97 1484.71C326.97 1468 323.218 1452.38 321.413 1436.13C320.377 1426.81 324.206 1417.56 325.699 1408.51C327.657 1396.64 326.97 1384.45 326.97 1372.47C326.97 1365.85 326.97 1359.24 326.97 1352.62C326.97 1339.98 306.269 1351.47 300.615 1353.26C272.015 1362.33 242.556 1372.8 212.504 1375.8C205.275 1376.53 211.147 1369.08 212.662 1365.01C215.227 1358.12 227.791 1340.19 225.681 1347.23C223.539 1354.37 202.379 1360.43 195.516 1362.15" stroke="white" stroke-width="3" stroke-linecap="round"/>
</svg>
