<svg width="2111" height="2655" viewBox="0 0 2111 2655" fill="none" xmlns="http://www.w3.org/2000/svg">
<path d="M899.292 1398.26H930.718C932.052 1398.11 933.383 1398 934.761 1397.93C937.805 1397.76 941.007 1396.67 943.967 1395.97C945.523 1395.6 947.068 1395.22 948.618 1394.82C955.257 1393.11 962.123 1393.54 968.914 1393.54H991.821H1011.94H1034.35C1037.23 1393.54 1039.86 1394.65 1042.7 1394.65C1044.6 1394.65 1046.49 1394.57 1048.37 1394.78C1052.7 1394.87 1056.86 1394.95 1060.73 1394.95H1180.47C1204.26 1394.95 1231.91 1390.46 1254.67 1397.52C1264.06 1400.44 1274.03 1400.69 1283.69 1401.56C1294.77 1402.57 1305.4 1410.76 1316.01 1414.05C1325.22 1416.91 1349.74 1422.01 1352.92 1433.15C1355.96 1443.77 1360.94 1457.21 1367.8 1466.03C1371.93 1471.34 1379.56 1490.41 1379.56 1497.43C1379.56 1519.35 1389.47 1538.34 1389.47 1560.61C1389.47 1595.37 1396.37 1636.35 1406.74 1669.34C1409.82 1679.15 1416.58 1699.75 1429.14 1699.09C1441.16 1698.46 1459.88 1691.02 1470.28 1684.4C1478.68 1679.05 1488.87 1680.85 1495.44 1670.99C1502.07 1661.06 1516.69 1656.61 1525.01 1648.03C1538.89 1633.74 1553.97 1613.84 1563.95 1596.61C1569.68 1586.71 1582.16 1584.29 1589.29 1575.12C1603.99 1556.22 1632.57 1551.97 1649.9 1536.37C1670.36 1517.95 1683.28 1491.42 1698.57 1469.33C1715.69 1444.6 1730.5 1415.2 1743.93 1388.34C1751.36 1373.49 1770.54 1361.48 1784.52 1352.16C1812.13 1333.75 1836.11 1308.98 1862.57 1288.06C1892.47 1264.44 1929.37 1248.6 1961.75 1228.56C1979.65 1217.48 1998.75 1210.6 2018.31 1203.22C2031.74 1198.14 2041.22 1198.11 2048.99 1210.19C2066.03 1236.71 2070.02 1295.97 2063.13 1327C2059.01 1345.51 2057.25 1362.14 2057.25 1381C2057.25 1407.47 2046.06 1431.98 2040.9 1457.76C2023.06 1547 1987 1630.2 1951.46 1713.97C1934.73 1753.41 1919.57 1793.87 1904.5 1834.05L1901.88 1841.06C1890.22 1872.14 1877.17 1903.33 1866.25 1934.54C1835.14 2023.4 1789.25 2104.08 1731.63 2178.43C1713.72 2201.53 1692.29 2219.01 1668.82 2236.29C1640.71 2256.97 1615.09 2279.76 1584.7 2297.26C1541.97 2321.86 1495.03 2339.68 1448.61 2356.21C1407.55 2370.84 1377.05 2367.67 1346.5 2337.11C1328.52 2319.14 1312.55 2292.4 1304.26 2268.43C1300.35 2257.14 1294.73 2246.87 1291.03 2235.37C1286.44 2221.07 1284.66 2202.88 1278.73 2189.82C1270.29 2171.26 1273.77 2144.24 1273.77 2124.44V2045.47C1273.77 2003.77 1280.38 1962.86 1280.38 1921.13C1280.38 1893.26 1281.19 1867.94 1271.2 1841.97C1265.04 1825.96 1257.24 1807.3 1257.24 1790C1257.24 1713.14 1268.43 1643.14 1229.14 1573.28C1211.53 1541.99 1194.73 1527.19 1159.53 1527.19H1033.18C970.105 1527.19 917.129 1533.17 860.54 1562.82C848.12 1569.32 830.682 1576.88 820.87 1586.69C809.545 1598.02 807.629 1611.05 801.035 1624.89C793.047 1641.67 790.436 1665.97 787.628 1684.21C785.349 1699.03 777.895 1713.62 777.895 1728.84C777.895 1744 773.389 1768.14 767.977 1782.47C761.787 1798.85 763.595 1813.55 759.713 1829.85C750.833 1867.15 744.184 1905.33 737.49 1942.99C732.371 1971.78 714.53 1996.63 708.289 2024.71C703.069 2048.2 701.422 2081.36 688.637 2101.67C682.691 2111.11 681.016 2122.42 676.149 2132.15C671.299 2141.85 663.25 2150.43 658.885 2160.25C651.507 2176.85 638.706 2195.31 625.827 2208.19C610.548 2223.47 596.636 2243.86 578.076 2254.47C570.61 2258.73 566.579 2267.21 558.057 2271C547.686 2275.61 543.514 2268.26 533.263 2267.69C499.521 2265.82 485.834 2246.62 459.066 2231.33C431.895 2215.8 409.903 2193.54 385.603 2173.66C365.418 2157.14 345.483 2140.74 324.996 2124.81C300.668 2105.88 279.837 2075.66 259.063 2052.81C198.14 1985.8 139.495 1906.14 103.506 1822.87C82.6446 1774.61 67.909 1726.12 54.653 1675.21C43.6959 1633.14 44.0008 1591.08 44.0008 1547.94C44.0008 1447.96 64.5745 1340.56 115.994 1253.54C153.264 1190.47 241.023 1226.54 277.613 1273C329.104 1338.39 363.437 1415.35 399.561 1489.72C440.398 1573.8 452.7 1664.65 475.595 1753.82C488.465 1803.95 502.95 1864.38 564.669 1864.38C581.797 1864.38 610.216 1848.77 622.521 1836.46C646.167 1812.82 640.184 1779.11 642.539 1748.49C643.721 1733.13 651.351 1718.03 653.926 1702.58L653.973 1702.3C656.301 1688.33 658.664 1674.15 662.558 1660.52C670.722 1631.95 683.048 1600.59 685.331 1570.9C688.509 1529.59 715.295 1494.07 733.266 1458.13C743.746 1437.17 766.667 1426.22 785.241 1414.79C818.392 1394.39 862.379 1398.26 899.292 1398.26Z" fill="black"/>
<path d="M1002.69 1391.65C992.418 1391.65 982.387 1398.26 971.286 1398.26H899.292C862.379 1398.26 818.392 1394.39 785.241 1414.79C766.667 1426.22 743.746 1437.17 733.266 1458.13C715.295 1494.07 688.509 1529.59 685.331 1570.9C683.048 1600.59 670.722 1631.95 662.558 1660.52C658.664 1674.15 656.301 1688.33 653.973 1702.3L653.926 1702.58C651.351 1718.03 643.721 1733.13 642.539 1748.49C640.184 1779.11 646.167 1812.82 622.521 1836.46C610.216 1848.77 581.797 1864.38 564.669 1864.38C502.95 1864.38 488.465 1803.95 475.595 1753.82C452.7 1664.65 440.398 1573.8 399.561 1489.72C363.437 1415.35 329.104 1338.39 277.613 1273C241.023 1226.54 153.264 1190.47 115.994 1253.54C64.5745 1340.56 44.0008 1447.96 44.0008 1547.94C44.0008 1591.08 43.6959 1633.14 54.653 1675.21C67.909 1726.12 82.6446 1774.61 103.506 1822.87C139.495 1906.14 198.14 1985.8 259.063 2052.81C279.837 2075.66 300.668 2105.88 324.996 2124.81C345.483 2140.74 365.418 2157.14 385.603 2173.66C409.903 2193.54 431.895 2215.8 459.066 2231.33C485.834 2246.62 499.521 2265.82 533.263 2267.69C543.514 2268.26 547.686 2275.61 558.057 2271C566.579 2267.21 570.61 2258.73 578.076 2254.47C596.636 2243.86 610.548 2223.47 625.827 2208.19C638.706 2195.31 651.507 2176.85 658.885 2160.25C663.25 2150.43 671.299 2141.85 676.149 2132.15C681.016 2122.42 682.691 2111.11 688.637 2101.67C701.422 2081.36 703.069 2048.2 708.289 2024.71C714.53 1996.63 732.371 1971.78 737.49 1942.99C744.184 1905.33 750.833 1867.15 759.713 1829.85C763.595 1813.55 761.787 1798.85 767.977 1782.47C773.389 1768.14 777.895 1744 777.895 1728.84C777.895 1713.62 785.349 1699.03 787.628 1684.21C790.436 1665.97 793.047 1641.67 801.035 1624.89C807.629 1611.05 809.545 1598.02 820.87 1586.69C830.682 1576.88 848.12 1569.32 860.54 1562.82C917.129 1533.17 970.105 1527.19 1033.18 1527.19H1159.53C1194.73 1527.19 1211.53 1541.99 1229.14 1573.28C1268.43 1643.14 1257.24 1713.14 1257.24 1790C1257.24 1807.3 1265.04 1825.96 1271.2 1841.97C1281.19 1867.94 1280.38 1893.26 1280.38 1921.13C1280.38 1962.86 1273.77 2003.77 1273.77 2045.47V2124.44C1273.77 2144.24 1270.29 2171.26 1278.73 2189.82C1284.66 2202.88 1286.44 2221.07 1291.03 2235.37C1294.73 2246.87 1300.35 2257.14 1304.26 2268.43C1312.55 2292.4 1328.52 2319.14 1346.5 2337.11C1377.05 2367.67 1407.55 2370.84 1448.61 2356.21C1495.03 2339.68 1541.97 2321.86 1584.7 2297.26C1615.09 2279.76 1640.71 2256.97 1668.82 2236.29C1692.29 2219.01 1713.72 2201.53 1731.63 2178.43C1789.25 2104.08 1835.14 2023.4 1866.25 1934.54C1877.17 1903.33 1890.22 1872.14 1901.88 1841.06L1904.5 1834.05C1919.57 1793.87 1934.73 1753.41 1951.46 1713.97C1987 1630.2 2023.06 1547 2040.9 1457.76C2046.06 1431.98 2057.25 1407.47 2057.25 1381C2057.25 1362.14 2059.01 1345.51 2063.13 1327C2070.02 1295.97 2066.03 1236.71 2048.99 1210.19C2041.22 1198.11 2031.74 1198.14 2018.31 1203.22C1998.75 1210.6 1979.65 1217.48 1961.75 1228.56C1929.37 1248.6 1892.47 1264.44 1862.57 1288.06C1836.11 1308.98 1812.13 1333.75 1784.52 1352.16C1770.54 1361.48 1751.36 1373.49 1743.93 1388.34C1730.5 1415.2 1715.69 1444.6 1698.57 1469.33C1683.28 1491.42 1670.36 1517.95 1649.9 1536.37C1632.57 1551.97 1603.99 1556.22 1589.29 1575.12C1582.16 1584.29 1569.68 1586.71 1563.95 1596.61C1553.97 1613.84 1538.89 1633.74 1525.01 1648.03C1516.69 1656.61 1502.07 1661.06 1495.44 1670.99C1488.87 1680.85 1478.68 1679.05 1470.28 1684.4C1459.88 1691.02 1441.16 1698.46 1429.14 1699.09C1416.58 1699.75 1409.82 1679.15 1406.74 1669.34C1396.37 1636.35 1389.47 1595.37 1389.47 1560.61C1389.47 1538.34 1379.56 1519.35 1379.56 1497.43C1379.56 1490.41 1371.93 1471.34 1367.8 1466.03C1360.94 1457.21 1355.96 1443.77 1352.92 1433.15C1349.74 1422.01 1325.22 1416.91 1316.01 1414.05C1305.4 1410.76 1294.77 1402.57 1283.69 1401.56C1274.03 1400.69 1264.06 1400.44 1254.67 1397.52C1231.91 1390.46 1204.26 1394.95 1180.47 1394.95H1060.73C1040.23 1394.95 1011.42 1392.54 992.773 1400.83C970.554 1410.71 938.423 1404.87 913.434 1404.87M913.41 1404.62C909.756 1404.62 904.977 1402.47 901.318 1401.51C898.226 1400.7 895.062 1399.78 891.836 1399.78C888.617 1399.78 885.845 1400.48 882.662 1400.48C879.446 1400.48 876.573 1399.09 873.334 1399.09M1000.47 1392.88C1008.34 1392.88 1016.01 1394.26 1023.97 1394.26M826.525 1401.04C827.205 1400.78 827.833 1400.68 828.57 1400.61C832.462 1400.24 836.405 1400.25 840.309 1400.03C849.557 1399.52 858.788 1399.49 868.047 1399.49H914.661C919.098 1399.49 923.424 1399.38 927.808 1398.66C930.154 1398.28 932.388 1398.06 934.761 1397.93C937.805 1397.76 941.007 1396.67 943.967 1395.97C945.523 1395.6 947.068 1395.22 948.618 1394.82C955.257 1393.11 962.123 1393.54 968.914 1393.54H1034.35C1037.23 1393.54 1039.86 1394.65 1042.7 1394.65C1045.29 1394.65 1047.86 1394.51 1050.39 1395.14C1051.97 1395.52 1053.55 1395.59 1055.14 1395.97C1060.56 1397.27 1066.06 1398.16 1071.53 1399.25C1076.95 1400.32 1082.41 1401.27 1087.8 1402.47C1090.59 1403.09 1093.57 1403.37 1096.29 1404.24C1096.64 1404.35 1096.96 1404.34 1097.32 1404.34" stroke="white" stroke-width="3" stroke-linecap="round"/>
</svg>
