<svg width="2145" height="2655" viewBox="0 0 2145 2655" fill="none" xmlns="http://www.w3.org/2000/svg">
<path d="M1047.4 1355.46C1059.33 1373.88 1064.57 1395.64 1072.59 1415.8C1080.62 1395.62 1085.86 1373.85 1097.8 1355.41C1123.85 1315.17 1151.07 1289.43 1198.29 1278.16C1243.73 1267.32 1306.23 1265.57 1350.08 1283.53C1366.91 1290.42 1388.25 1298.79 1401.96 1310.97C1427.28 1333.44 1445.15 1370.73 1461.3 1399.55C1485.66 1443 1503.11 1490.34 1525.72 1534.81C1546.82 1576.33 1562.82 1620.13 1589.53 1658.59C1625.75 1710.77 1684.9 1744.74 1743.1 1767.61C1804.47 1791.72 1872.19 1805.15 1936.93 1788.19C1976.66 1777.78 2015.38 1762.52 2049.95 1740.17C2069.11 1727.77 2091.81 1713.09 2105.11 1693.94C2117.08 1676.7 2122.78 1655.64 2134.04 1637.86C2136.69 1633.67 2136.54 1626.41 2140 1622.95C2140.07 1622.88 2143.23 1641.61 2143.13 1643.38C2139.73 1708.04 2106.52 1773.4 2073.5 1827.56C2031.83 1895.92 1978.59 1942.65 1906.36 1976.84C1854.95 2001.17 1801.32 2017.28 1745.64 2027.99C1691.66 2038.37 1637.3 2050.4 1582.37 2054.39C1543.21 2057.23 1504.26 2054.12 1466.67 2042.31C1417.24 2026.77 1365.52 2008 1321.45 1980.57C1215.69 1914.72 1132.54 1818.5 1084.83 1703.03C1080.92 1693.57 1076.4 1682.16 1072.6 1670.33C1068.81 1682.16 1064.28 1693.58 1060.37 1703.04C1012.65 1818.48 929.507 1914.69 823.737 1980.53C779.667 2007.96 727.94 2026.72 678.506 2042.26C640.92 2054.07 601.958 2057.18 562.798 2054.33C507.869 2050.35 453.5 2038.32 399.524 2027.94C343.837 2017.23 290.201 2001.13 238.786 1976.8C166.553 1942.62 113.311 1895.89 71.6355 1827.54C38.6148 1773.39 5.4046 1708.04 2.00203 1643.39C1.90857 1641.62 5.067 1622.9 5.1333 1622.96C8.59505 1626.43 8.44368 1633.68 11.0976 1637.88C22.3562 1655.65 28.0522 1676.7 40.0246 1693.94C53.3242 1713.09 76.0265 1727.77 95.1946 1740.16C129.762 1762.52 168.486 1777.77 208.219 1788.18C272.958 1805.14 340.689 1791.71 402.059 1767.6C460.268 1744.73 519.413 1710.77 555.641 1658.6C582.348 1620.14 598.352 1576.35 619.459 1534.84C642.068 1490.38 659.516 1443.04 683.873 1399.6C700.03 1370.79 717.905 1333.5 743.219 1311.03C756.933 1298.86 778.275 1290.49 795.108 1283.59C838.955 1265.64 901.462 1267.39 946.9 1278.23C994.129 1289.49 1021.35 1315.24 1047.4 1355.46Z" fill="black"/>
<path d="M1075.43 1422.56C1065.67 1400.6 1060.68 1375.97 1047.4 1355.46C1021.35 1315.24 994.129 1289.49 946.9 1278.23C901.462 1267.39 838.955 1265.64 795.108 1283.59C778.275 1290.49 756.933 1298.86 743.219 1311.03C717.905 1333.5 700.03 1370.79 683.873 1399.6C659.516 1443.04 642.068 1490.38 619.459 1534.84C598.352 1576.35 582.348 1620.14 555.641 1658.6C519.413 1710.77 460.268 1744.73 402.059 1767.6C340.689 1791.71 272.958 1805.14 208.219 1788.18C168.486 1777.77 129.762 1762.52 95.1946 1740.16C76.0265 1727.77 53.3242 1713.09 40.0246 1693.94C28.0522 1676.7 22.3562 1655.65 11.0976 1637.88C8.44368 1633.68 8.59505 1626.43 5.1333 1622.96C5.067 1622.9 1.90857 1641.62 2.00203 1643.39C5.4046 1708.04 38.6148 1773.39 71.6355 1827.54C113.311 1895.89 166.553 1942.62 238.786 1976.8C290.201 2001.13 343.837 2017.23 399.524 2027.94C453.5 2038.32 507.869 2050.35 562.798 2054.33C601.958 2057.18 640.92 2054.07 678.506 2042.26C727.94 2026.72 779.667 2007.96 823.737 1980.53C929.507 1914.69 1012.65 1818.48 1060.37 1703.04C1069.07 1682 1080.8 1651.31 1080.8 1627.89C1080.8 1623.15 1089.08 1602.85 1091.54 1607.76M1069.77 1422.52C1079.53 1400.55 1084.53 1375.91 1097.8 1355.41C1123.85 1315.17 1151.07 1289.43 1198.29 1278.16C1243.73 1267.32 1306.23 1265.57 1350.08 1283.53C1366.91 1290.42 1388.25 1298.79 1401.96 1310.97C1427.28 1333.44 1445.15 1370.73 1461.3 1399.55C1485.66 1443 1503.11 1490.34 1525.72 1534.81C1546.82 1576.33 1562.82 1620.13 1589.53 1658.59C1625.75 1710.77 1684.9 1744.74 1743.1 1767.61C1804.47 1791.72 1872.19 1805.15 1936.93 1788.19C1976.66 1777.78 2015.38 1762.52 2049.95 1740.17C2069.11 1727.77 2091.81 1713.09 2105.11 1693.94C2117.08 1676.7 2122.78 1655.64 2134.04 1637.86C2136.69 1633.67 2136.54 1626.41 2140 1622.95C2140.07 1622.88 2143.23 1641.61 2143.13 1643.38C2139.73 1708.04 2106.52 1773.4 2073.5 1827.56C2031.83 1895.92 1978.59 1942.65 1906.36 1976.84C1854.95 2001.17 1801.32 2017.28 1745.64 2027.99C1691.66 2038.37 1637.3 2050.4 1582.37 2054.39C1543.21 2057.23 1504.26 2054.12 1466.67 2042.31C1417.24 2026.77 1365.52 2008 1321.45 1980.57C1215.69 1914.72 1132.54 1818.5 1084.83 1703.03C1076.14 1682 1064.4 1651.3 1064.4 1627.87C1064.4 1623.13 1056.12 1602.84 1053.67 1607.74" stroke="white" stroke-width="2.47231" stroke-linecap="round"/>
</svg>
