<svg width="2111" height="2655" viewBox="0 0 2111 2655" fill="none" xmlns="http://www.w3.org/2000/svg">
<path d="M985.001 1422.54H1046C1060.33 1425.95 1075.99 1432.18 1088 1436.98C1101.31 1442.31 1116.46 1443.33 1130.79 1446.26C1154.82 1451.18 1178.36 1457.79 1202.72 1461.99C1240.31 1468.47 1269.23 1481.92 1301.21 1501.43C1322.57 1514.47 1345.38 1532.54 1361.79 1551.45C1377.5 1569.55 1386.76 1591.36 1401.5 1610.23C1410.58 1621.85 1420.36 1633.45 1424.83 1647.74C1427.7 1656.93 1414.83 1662.96 1407.43 1665.02C1398.67 1667.45 1388.93 1663.52 1380.74 1660.51C1370.24 1656.64 1353.13 1653.89 1344.78 1646.58C1338.69 1641.26 1321.23 1632.97 1313.45 1631.24C1306.34 1629.66 1302.1 1621.24 1294.89 1619.64C1281.98 1616.77 1267.08 1602.07 1256.48 1594.12C1246.38 1586.55 1234.31 1580.89 1223.09 1575.17C1195.81 1561.27 1172.66 1547.24 1142.91 1539.59C1105.5 1529.97 1067.23 1529.28 1028.7 1529.28C995.54 1529.28 959.254 1539.37 928.927 1551.97C886.224 1569.7 841.962 1584.26 798.86 1601.08C772.149 1611.5 739.11 1629.05 710.173 1629.05C703.326 1629.05 693.846 1633.27 689.419 1624.41C682.17 1609.91 682.217 1585.45 689.419 1571.04C697.688 1554.51 713.403 1542.42 726.028 1529.41C753.231 1501.38 791.145 1479.06 824.513 1458.9C853.756 1441.23 892.024 1427.79 925.704 1422.8C944.776 1419.98 965.838 1422.54 985.001 1422.54Z" fill="black"/>
<path d="M1054.74 1422.54C1031.49 1422.54 1008.25 1422.54 985.001 1422.54C965.838 1422.54 944.776 1419.98 925.704 1422.8C892.024 1427.79 853.756 1441.23 824.513 1458.9C791.145 1479.06 753.231 1501.38 726.028 1529.41C713.403 1542.42 697.688 1554.51 689.419 1571.04C682.217 1585.45 682.17 1609.91 689.419 1624.41C693.846 1633.27 703.326 1629.05 710.173 1629.05C739.11 1629.05 772.149 1611.5 798.86 1601.08C841.962 1584.26 886.224 1569.7 928.927 1551.97C959.254 1539.37 995.54 1529.28 1028.7 1529.28C1067.23 1529.28 1105.5 1529.97 1142.91 1539.59C1172.66 1547.24 1195.81 1561.27 1223.09 1575.17C1234.31 1580.89 1246.38 1586.55 1256.48 1594.12C1267.08 1602.07 1281.98 1616.77 1294.89 1619.64C1302.1 1621.24 1306.34 1629.66 1313.45 1631.24C1321.23 1632.97 1338.69 1641.26 1344.78 1646.58C1353.13 1653.89 1370.24 1656.64 1380.74 1660.51C1388.93 1663.52 1398.67 1667.45 1407.43 1665.02C1414.83 1662.96 1427.7 1656.93 1424.83 1647.74C1420.36 1633.45 1410.58 1621.85 1401.5 1610.23C1386.76 1591.36 1377.5 1569.55 1361.79 1551.45C1345.38 1532.54 1322.57 1514.47 1301.21 1501.43C1269.23 1481.92 1240.31 1468.47 1202.72 1461.99C1178.36 1457.79 1154.82 1451.18 1130.79 1446.26C1116.46 1443.33 1101.31 1442.31 1088 1436.98C1071.91 1430.55 1049.27 1421.55 1032.05 1420.22C1020.06 1419.3 1003.07 1410.58 992.091 1417.9" stroke="white" stroke-width="3" stroke-linecap="round"/>
</svg>
