<svg width="2111" height="2655" viewBox="0 0 2111 2655" fill="none" xmlns="http://www.w3.org/2000/svg">
<path d="M965.688 1416.29H1150.33C1158.5 1414.36 1168.03 1414.8 1177.39 1416.29C1189.47 1418.21 1201.25 1421.88 1209.38 1424.45C1235.35 1432.65 1262.07 1434.2 1288.25 1444.02C1308.96 1451.78 1330.1 1458.45 1348.33 1469.59C1365.38 1480 1367.27 1507.51 1375.9 1523.04C1378.54 1527.79 1379.69 1541.8 1380.06 1547.22C1381.1 1562.35 1387.3 1576.49 1388.38 1591.59C1389.89 1612.69 1398.13 1633.21 1402.09 1653.67C1409.21 1690.46 1421.1 1727.76 1425.66 1764.89C1430.19 1801.8 1427.2 1840.37 1427.2 1877.49V2026.6V2345.78V2473.64C1427.2 2497.5 1424.65 2518.94 1413.49 2540.34C1407.13 2552.53 1403.58 2542.37 1397.93 2535.1C1388.59 2523.09 1385.61 2502.66 1385.61 2488.12V2270.92C1385.61 2202.07 1386.94 2133.38 1379.91 2064.81C1373.18 1999.22 1372.4 1934.84 1371.59 1868.99L1371.59 1868.71C1370.82 1805.36 1359.51 1744.18 1348.33 1682.01C1344.17 1658.88 1342.78 1629.79 1334.16 1607.61C1324.99 1584.03 1302.34 1573.03 1282.4 1560.47C1259.55 1546.08 1228.68 1560.47 1203.84 1560.47C1159.5 1560.47 1109.66 1552.87 1067.36 1565.4C1049.68 1570.64 1031.29 1569.26 1013.59 1572.95C997.315 1576.34 981.543 1581.72 965.534 1585.27C953.347 1587.98 940.681 1596.96 931.028 1604.68C923.597 1610.63 907.881 1617.19 903.147 1625.48C901.414 1628.51 884.059 1637.77 880.964 1638.11C875.453 1638.72 864.721 1649.93 862.171 1654.75C857.876 1662.86 853.445 1672.2 850.31 1681.09C846.158 1692.85 844.184 1703.02 840.759 1714.67C828.106 1757.69 822.414 1802.67 813.802 1846.68C804.924 1892.06 792.241 1935.19 782.685 1980.24C776.687 2008.52 776.027 2035.14 773.443 2063.88C771.391 2086.71 772.929 2108.4 767.897 2131.05C763.844 2149.28 760.405 2167.71 756.19 2185.88C742.838 2243.46 733.205 2302.01 718.912 2359.18C710.019 2394.75 700.735 2429.64 700.735 2466.55C700.735 2488.21 696.423 2503.76 702.891 2524.78C704.601 2530.33 695.189 2549.39 695.189 2543.42C695.189 2537.84 698.264 2520.64 693.803 2517.08C685.958 2510.8 687.93 2491.61 684.714 2483.8C678.99 2469.9 684.098 2444.39 684.098 2429.43C684.098 2304.55 712.49 2181.88 735.394 2059.72C743.508 2016.45 753.259 1973.3 759.579 1929.71C765.407 1889.52 766.576 1848.89 770.208 1808.48C777.259 1730.04 795.624 1652.79 815.188 1576.65C824.79 1539.28 832.682 1502.36 851.696 1468.35C858.565 1456.07 865.483 1453.94 874.803 1446.17C881.679 1440.44 893.774 1431.14 903.147 1430.15C909.003 1429.54 914.122 1422.8 919.783 1420.6C925.355 1418.43 930.724 1419.72 936.42 1418.91C946.391 1417.48 955.157 1416.29 965.688 1416.29Z" fill="black"/>
<path d="M1180.42 1416.29C1108.84 1416.29 1037.27 1416.29 965.688 1416.29C955.157 1416.29 946.391 1417.48 936.42 1418.91C930.724 1419.72 925.355 1418.43 919.783 1420.6C914.122 1422.8 909.003 1429.54 903.147 1430.15C893.774 1431.14 881.679 1440.44 874.803 1446.17C865.483 1453.94 858.565 1456.07 851.696 1468.35C832.682 1502.36 824.79 1539.28 815.188 1576.65C795.624 1652.79 777.259 1730.04 770.208 1808.48C766.576 1848.89 765.407 1889.52 759.579 1929.71C753.259 1973.3 743.508 2016.45 735.394 2059.72C712.49 2181.88 684.098 2304.55 684.098 2429.43C684.098 2444.39 678.99 2469.9 684.714 2483.8C687.93 2491.61 685.958 2510.8 693.803 2517.08C698.264 2520.64 695.189 2537.84 695.189 2543.42C695.189 2549.39 704.601 2530.33 702.891 2524.78C696.423 2503.76 700.735 2488.21 700.735 2466.55C700.735 2429.64 710.019 2394.75 718.912 2359.18C733.205 2302.01 742.838 2243.46 756.19 2185.88C760.405 2167.71 763.844 2149.28 767.897 2131.05C772.929 2108.4 771.391 2086.71 773.443 2063.88C776.027 2035.14 776.687 2008.52 782.685 1980.24C792.241 1935.19 804.924 1892.06 813.802 1846.68C822.414 1802.67 828.106 1757.69 840.759 1714.67C844.184 1703.02 846.158 1692.85 850.31 1681.09C853.445 1672.2 857.876 1662.86 862.171 1654.75C864.721 1649.93 875.453 1638.72 880.964 1638.11C884.059 1637.77 901.414 1628.51 903.147 1625.48C907.881 1617.19 923.597 1610.63 931.028 1604.68C940.681 1596.96 953.347 1587.98 965.534 1585.27C981.543 1581.72 997.315 1576.34 1013.59 1572.95C1031.29 1569.26 1049.68 1570.64 1067.36 1565.4C1109.66 1552.87 1159.5 1560.47 1203.84 1560.47C1228.68 1560.47 1259.55 1546.08 1282.4 1560.47C1302.34 1573.03 1324.99 1584.03 1334.16 1607.61C1342.78 1629.79 1344.17 1658.88 1348.33 1682.01C1359.51 1744.18 1370.82 1805.36 1371.59 1868.71C1372.39 1934.66 1373.17 1999.13 1379.91 2064.81C1386.94 2133.38 1385.61 2202.07 1385.61 2270.92C1385.61 2343.32 1385.61 2415.72 1385.61 2488.12C1385.61 2502.66 1388.59 2523.09 1397.93 2535.1C1403.58 2542.37 1407.13 2552.53 1413.49 2540.34C1424.65 2518.94 1427.2 2497.5 1427.2 2473.64C1427.2 2431.02 1427.2 2388.4 1427.2 2345.78C1427.2 2239.39 1427.2 2133 1427.2 2026.6C1427.2 1976.9 1427.2 1927.2 1427.2 1877.49C1427.2 1840.37 1430.19 1801.8 1425.66 1764.89C1421.1 1727.76 1409.21 1690.46 1402.09 1653.67C1398.13 1633.21 1389.89 1612.69 1388.38 1591.59C1387.3 1576.49 1381.1 1562.35 1380.06 1547.22C1379.69 1541.8 1378.54 1527.79 1375.9 1523.04C1367.27 1507.51 1365.38 1480 1348.33 1469.59C1330.1 1458.45 1308.96 1451.78 1288.25 1444.02C1262.07 1434.2 1235.35 1432.65 1209.38 1424.45C1189.52 1418.18 1147.98 1405.35 1133.29 1427.38" stroke="white" stroke-width="3" stroke-linecap="round"/>
</svg>
