<svg width="2111" height="2655" viewBox="0 0 2111 2655" fill="none" xmlns="http://www.w3.org/2000/svg">
<path d="M873.069 735.747C877.674 737.458 882.773 739.883 887.994 741.947C890.722 744.928 893.283 748.624 896.778 750.566C898.748 751.66 911.385 755.98 908.633 759.912C900.566 771.436 893.257 773.481 879.908 769.031C855.224 760.803 827.564 762.289 802.625 753.757C775.387 744.439 744.888 742.094 716.679 735.747C691.304 730.038 665.78 726.845 640.764 719.789C602.277 708.934 550.927 714.58 521.307 683.314C515.099 676.761 496.192 656.782 515.151 655.729C531.425 654.825 547.113 661.663 563.026 663.936C587.485 667.43 611.441 673.227 635.521 678.754C658.607 684.053 682.231 686.097 705.281 691.521C726.576 696.531 747.031 704.33 768.657 707.935C788.086 711.173 808.09 714.234 827.018 719.789C842.556 724.349 857.903 730.114 873.069 735.747Z" fill="black"/>
<path d="M904.985 746.006C894.451 746.006 882.684 739.318 873.069 735.747C857.903 730.114 842.556 724.349 827.018 719.789C808.09 714.234 788.086 711.173 768.657 707.935C747.031 704.33 726.575 696.531 705.281 691.521C682.231 686.097 658.607 684.053 635.521 678.754C611.441 673.227 587.485 667.43 563.026 663.936C547.113 661.663 531.425 654.825 515.151 655.729C496.192 656.782 515.099 676.761 521.307 683.314C550.927 714.58 602.277 708.934 640.764 719.789C665.78 726.845 691.304 730.038 716.679 735.747C744.888 742.094 775.387 744.439 802.625 753.757C827.564 762.289 855.224 760.803 879.908 769.031C893.257 773.481 900.566 771.436 908.633 759.912C911.385 755.98 898.748 751.66 896.778 750.566C891.1 747.411 887.886 739.623 882.416 737.799" stroke="white" stroke-width="3" stroke-linecap="round"/>
<path d="M1180.83 723.108C1182.33 722.761 1183.85 722.451 1185.39 722.183C1218.78 716.391 1251.85 709.146 1285.01 702.236C1318.8 695.197 1352.86 689.052 1386.46 681.49C1400.77 678.27 1415.88 672.057 1429.09 665.988C1439.69 661.117 1453.58 663.533 1463.97 658.807C1471.75 655.272 1483.22 654.436 1491.79 652.652C1499.46 651.054 1506.48 649.16 1514.36 649.574C1524.82 650.125 1522.56 657.295 1522.56 665.532C1522.56 685.766 1474.83 691.386 1460.78 694.713C1394.19 710.485 1326.2 721.875 1259.37 736.546C1229.05 743.2 1196.25 751.423 1165.56 754.213C1158.9 754.819 1121.71 770.7 1114.26 761.395C1109.26 755.144 1125.87 746.607 1138.16 741.647C1138.17 741.64 1138.19 741.634 1138.2 741.627C1138.86 741.254 1139.49 740.835 1140.16 740.476C1141.91 739.539 1143.63 738.665 1145.09 737.286C1146.25 736.186 1147.27 734.977 1148.26 733.74C1149.18 732.584 1150.08 731.405 1151.05 730.272C1151.84 729.335 1152.88 728.511 1153.89 727.804C1155.29 726.82 1156.85 726.044 1158.44 725.389C1160.31 724.616 1162.38 724.47 1164.34 724.03C1165.68 723.729 1167.04 723.451 1168.39 723.186C1169.58 722.953 1170.76 722.8 1171.97 722.756C1173.22 722.71 1174.41 722.31 1175.65 722.202C1177.43 722.047 1179.13 722.694 1180.83 723.108Z" fill="black"/>
<path d="M1140.94 735.748C1156.18 732.162 1169.65 724.913 1185.39 722.183C1218.78 716.391 1251.85 709.146 1285.01 702.236C1318.8 695.197 1352.86 689.052 1386.46 681.49C1400.77 678.27 1415.88 672.057 1429.09 665.988C1439.69 661.117 1453.58 663.533 1463.97 658.807C1471.75 655.272 1483.22 654.436 1491.79 652.652C1499.46 651.054 1506.48 649.16 1514.36 649.574C1524.82 650.125 1522.56 657.295 1522.56 665.532C1522.56 685.766 1474.83 691.386 1460.78 694.713C1394.19 710.485 1326.2 721.875 1259.37 736.546C1229.05 743.2 1196.25 751.423 1165.56 754.213C1158.9 754.819 1121.71 770.7 1114.26 761.395C1108.43 754.101 1132 743.696 1143.84 739.491M1143.84 739.491C1146.16 738.663 1148.04 738.076 1149.14 737.799M1143.84 739.491C1143.72 739.503 1143.61 739.509 1143.5 739.509M1143.84 739.491C1144.97 739.371 1146.07 738.699 1147.21 738.635C1148 738.591 1149.73 737.682 1150.41 737.215C1151.53 736.437 1152.9 735.913 1154.1 735.248C1155.42 734.515 1156.58 733.491 1157.92 732.783C1160.23 731.568 1162.44 730.175 1164.59 728.692C1165.06 728.365 1165.61 728.099 1166.12 727.818C1166.35 727.69 1167.04 727.327 1167.23 727.284C1167.83 727.151 1168.78 727.191 1169.07 726.616M1184.71 723.642C1184.51 723.727 1184.3 723.756 1184.09 723.75C1183.02 723.718 1181.92 723.37 1180.88 723.121C1179.16 722.707 1177.45 722.045 1175.65 722.202C1174.41 722.31 1173.22 722.71 1171.97 722.756C1170.76 722.8 1169.58 722.953 1168.39 723.186C1167.04 723.451 1165.68 723.729 1164.34 724.03C1162.38 724.47 1160.31 724.616 1158.44 725.389C1156.85 726.044 1155.29 726.82 1153.89 727.804C1152.88 728.511 1151.84 729.335 1151.05 730.272C1149.05 732.617 1147.34 735.158 1145.09 737.286C1143.63 738.665 1141.91 739.539 1140.16 740.476C1139.49 740.835 1138.86 741.254 1138.2 741.627C1136.81 742.408 1135.26 743.333 1134.21 744.554C1133.95 744.864 1133.73 745.156 1133.4 745.408C1133.18 745.581 1132.93 745.734 1132.73 745.936" stroke="white" stroke-width="3" stroke-linecap="round"/>
</svg>
