<svg width="2111" height="2655" viewBox="0 0 2111 2655" fill="none" xmlns="http://www.w3.org/2000/svg">
<path d="M622.36 628.84C624.677 627 628.948 624.412 632.694 621.501C642.498 620.333 655.116 621.469 660.942 621.469C681.965 621.469 697.847 631.982 717.56 637.78C738.608 643.971 761.843 646.548 783.745 651.111C809.301 656.435 822.695 688.465 823.268 713.062C824.03 745.866 824.17 779.11 820.444 811.712C818.659 827.331 808.776 859.453 794.723 868.486C772.841 882.553 747.847 890.944 723.833 900.324C713.482 904.367 701.52 904.915 690.584 906.598C677.672 908.584 666.186 914.639 652.943 915.067C582.435 917.341 556.609 822.846 558.057 767.797C558.918 735.093 561.922 681.349 586.758 655.973C596.91 645.601 610.989 637.871 622.36 628.84Z" fill="black"/>
<path d="M639.769 613C638.428 619.034 626.804 625.312 622.36 628.84C610.989 637.871 596.91 645.601 586.758 655.973C561.922 681.349 558.918 735.093 558.057 767.797C556.609 822.846 582.435 917.341 652.943 915.067C666.186 914.64 677.672 908.584 690.584 906.598C701.52 904.915 713.482 904.367 723.833 900.324C747.847 890.944 772.841 882.553 794.723 868.486C808.776 859.453 818.659 827.331 820.444 811.712C824.17 779.11 824.03 745.866 823.268 713.062C822.696 688.465 809.301 656.435 783.745 651.111C761.843 646.548 738.608 643.971 717.56 637.78C697.847 631.982 681.965 621.469 660.942 621.469C651.516 621.469 624.317 618.496 620.008 627.115" stroke="white" stroke-width="3" stroke-linecap="round"/>
<path d="M1366.55 689.379C1376.16 685.533 1386.9 681.24 1397.86 677.918C1412.02 677.686 1432.1 674.272 1444.34 668.834C1461.23 661.326 1490.77 643.672 1509.27 651.896C1532.56 662.246 1556.98 678.278 1575.45 696.751C1598.82 720.115 1606.67 748.58 1616.55 779.09C1625 805.223 1636.3 830.909 1638.5 858.606C1643.31 919.134 1612.58 979.664 1553.5 996.935C1518.08 1007.29 1481.06 1001.76 1445.44 993.955C1417 987.723 1385.57 984.166 1358.71 972.783C1340.03 964.869 1321.54 956.795 1302.56 949.571C1258.29 932.724 1215.67 913.388 1215.67 860.174C1215.67 808.821 1234.36 766.93 1276.84 736.587C1304.45 716.866 1335.25 701.898 1366.55 689.379Z" fill="black"/>
<path d="M1430.22 672.284C1409.31 672.284 1385.7 681.72 1366.55 689.379C1335.25 701.898 1304.45 716.866 1276.84 736.587C1234.36 766.93 1215.67 808.821 1215.67 860.174C1215.67 913.388 1258.29 932.724 1302.56 949.571C1321.54 956.795 1340.03 964.869 1358.71 972.783C1385.57 984.166 1417 987.723 1445.44 993.955C1481.06 1001.76 1518.08 1007.29 1553.5 996.935C1612.58 979.664 1643.31 919.134 1638.5 858.606C1636.3 830.909 1625 805.223 1616.55 779.09C1606.67 748.58 1598.82 720.115 1575.45 696.751C1556.98 678.278 1532.56 662.246 1509.27 651.896C1490.77 643.672 1461.23 661.326 1444.34 668.834C1431.66 674.469 1410.55 677.93 1396.35 677.93" stroke="white" stroke-width="3" stroke-linecap="round"/>
</svg>
