<svg width="2111" height="2655" viewBox="0 0 2111 2655" fill="none" xmlns="http://www.w3.org/2000/svg">
<path d="M1531.09 847.383C1547.67 811.036 1568.02 732.892 1540.19 694.173C1537.6 697.318 1535.78 698.68 1535.78 707.273C1535.78 717.839 1535.43 726.188 1531.82 736.291C1527.29 748.989 1527.73 762.255 1522.59 775.276C1516.19 791.455 1509.64 807.181 1498.7 820.856C1483.05 840.41 1472.7 856.768 1450.19 867.608C1429.67 877.489 1404.45 891.937 1381.16 891.937C1360.08 891.937 1341.9 892.602 1322.68 881.971C1308.46 874.104 1298.14 861.693 1284.58 852.952C1276.1 847.488 1266.99 841.447 1260.25 833.899C1244.5 816.261 1229.86 796.459 1220.53 774.69C1208.56 746.757 1203.72 717.158 1196.05 687.341C1190.06 664.03 1194.29 736.033 1199.87 759.448C1216.7 830.148 1250.14 899.106 1322.39 925.059C1364.85 940.314 1416.96 934.738 1458.98 919.636C1499.27 905.159 1513.91 885.052 1531.09 847.383Z" fill="black"/>
<path d="M1535.78 688.806C1570.01 725.183 1548.47 809.266 1531.09 847.383C1513.91 885.052 1499.27 905.159 1458.98 919.636C1416.96 934.738 1364.85 940.314 1322.39 925.059C1250.14 899.106 1216.7 830.148 1199.87 759.448C1194.29 736.033 1190.06 664.03 1196.05 687.341C1203.72 717.158 1208.56 746.757 1220.53 774.69C1229.86 796.459 1244.5 816.261 1260.25 833.899C1266.99 841.447 1276.1 847.489 1284.58 852.952C1298.14 861.693 1308.46 874.104 1322.68 881.971C1341.9 892.602 1360.08 891.937 1381.16 891.937C1404.45 891.937 1429.67 877.489 1450.19 867.608C1472.7 856.768 1483.05 840.41 1498.7 820.856C1509.64 807.181 1516.19 791.455 1522.59 775.276C1527.73 762.255 1527.29 748.989 1531.82 736.291C1535.43 726.188 1535.78 717.839 1535.78 707.273C1535.78 695.167 1539.39 697.413 1543.69 688.806" stroke="white" stroke-width="3" stroke-linecap="round"/>
<path d="M867.514 770.824C866.972 768.508 866.359 766.165 865.715 763.809C866.13 752.985 866.877 741.992 866.877 731.087C866.877 720.264 859.587 707.635 853.18 699.155C847.122 691.137 842.241 682.251 836.776 673.832C830.781 664.596 822.143 656.338 818.222 645.882C816.824 642.155 808.551 637.141 805.163 634.176C796.733 626.8 785.652 621.017 775.778 615.701C759.007 606.67 741.97 601.368 722.823 601.368H657.127C642.464 601.368 627.264 600.21 612.693 602.005C602.733 603.232 593.129 605.958 583.07 606.782C566.494 608.141 552.548 613.833 536.883 618.886C531.479 620.63 525.851 622.642 522.948 627.964C515.553 641.521 505.099 654.248 500.492 669.134C493.801 690.752 484.041 710.439 480.743 733.158C478.049 751.715 478.434 770.603 478.434 789.298C478.434 801.767 477.271 814.959 478.752 827.362C480.712 843.773 483.192 859.198 488.786 874.823C495.491 893.55 510.888 907.514 526.133 919.337C541.191 931.014 559.811 938.693 578.292 943.226C598.705 948.233 618.575 953.807 639.768 953.977L641.354 953.989C662.412 954.158 683.538 954.327 704.588 953.977C720.496 953.711 737.071 949.006 752.526 945.297C782.943 937.996 814.692 932.05 837.573 908.746C849.501 896.597 854.37 878.483 860.507 862.878C866.105 848.641 869.744 833.652 869.744 818.364C869.744 802.521 871.142 786.323 867.514 770.824Z" fill="black"/>
<path d="M859.71 740.404C861.515 750.33 865.176 760.833 867.514 770.824C871.142 786.323 869.744 802.521 869.744 818.364C869.744 833.652 866.105 848.641 860.507 862.878C854.37 878.483 849.501 896.597 837.573 908.746C814.692 932.05 782.943 937.996 752.526 945.297C737.071 949.006 720.496 953.711 704.588 953.977C683.009 954.336 661.351 954.149 639.768 953.977C618.575 953.807 598.705 948.233 578.292 943.226C559.811 938.693 541.191 931.014 526.133 919.337C510.888 907.514 495.491 893.55 488.786 874.823C483.192 859.198 480.712 843.773 478.752 827.362C477.271 814.959 478.434 801.767 478.434 789.298C478.434 770.603 478.049 751.715 480.743 733.158C484.041 710.439 493.801 690.752 500.492 669.134C505.099 654.248 515.553 641.521 522.948 627.964C525.851 622.642 531.479 620.63 536.883 618.886C552.548 613.833 566.494 608.141 583.07 606.782C593.129 605.958 602.733 603.232 612.693 602.005C627.264 600.21 642.464 601.368 657.127 601.368C679.026 601.368 700.925 601.368 722.823 601.368C741.97 601.368 759.007 606.67 775.778 615.701C785.652 621.017 796.733 626.8 805.163 634.176C808.551 637.141 816.824 642.155 818.222 645.882C822.143 656.338 830.781 664.596 836.776 673.832C842.241 682.251 847.122 691.137 853.18 699.155C859.587 707.635 866.877 720.264 866.877 731.087C866.877 746.196 865.444 761.476 865.444 776.239" stroke="white" stroke-width="3" stroke-linecap="round"/>
</svg>
