<svg width="2111" height="2655" viewBox="0 0 2111 2655" fill="none" xmlns="http://www.w3.org/2000/svg">
<path d="M1413.63 695.937C1449.91 687.111 1483.42 682.675 1517.7 680.549C1529.21 680.804 1540.61 681.874 1551.92 684.387C1562.03 686.634 1571.04 699.697 1581.24 704.229C1589.19 707.762 1601.88 709.111 1610.56 711.04C1634.66 716.395 1636.29 735.985 1645.21 756.053C1660.85 791.251 1651.43 848.8 1633.36 881.321C1601.5 938.673 1542.6 964.063 1481.15 976.086C1453.69 981.457 1393.63 1000.98 1365.35 985.266C1337.04 969.537 1288.71 946.267 1257.26 940.549C1207.68 931.534 1159.48 929.296 1108.9 929.296C1062.05 929.296 1016.63 939.957 970.895 939.957C928.544 939.957 877.017 973.253 838.224 987.931C786.643 1007.45 748.984 1009.25 693.707 1009.25C667.292 1009.25 616.436 1014.6 592.427 1001.26C567.145 987.212 535.906 988.208 512.766 969.275C492.317 952.544 474.208 938.49 463.014 913.304C456.051 897.638 462.826 871.906 452.353 858.814C441.312 845.013 455.742 805.074 456.499 790.702C457.855 764.931 489.739 759.161 508.027 748.058C527.643 736.148 575.032 721.405 597.758 721.405C612.53 721.405 625.13 711.274 638.921 710.744C656.14 710.082 673.516 710.744 690.746 710.744H757.97C801.327 710.744 843.208 734.776 885.31 742.431C957.805 755.612 1022.37 806.693 1096.16 806.693C1153.74 806.693 1201.08 777.091 1251.93 757.534C1306.32 736.616 1354.87 710.229 1413.63 695.937Z" fill="black"/>
<path d="M1586.57 678.761C1525.87 678.761 1473.52 681.367 1413.63 695.937C1354.87 710.229 1306.32 736.616 1251.93 757.534C1201.08 777.091 1153.74 806.693 1096.16 806.693C1022.37 806.693 957.805 755.612 885.31 742.431C843.208 734.776 801.327 710.744 757.97 710.744C735.562 710.744 713.154 710.744 690.746 710.744C673.516 710.744 656.14 710.082 638.921 710.744C625.13 711.274 612.53 721.405 597.758 721.405C575.032 721.405 527.643 736.148 508.027 748.058C489.739 759.161 457.855 764.931 456.499 790.702C455.742 805.074 441.312 845.013 452.353 858.814C462.826 871.906 456.051 897.638 463.014 913.304C474.208 938.49 492.317 952.544 512.766 969.275C535.906 988.208 567.145 987.212 592.427 1001.26C616.436 1014.6 667.292 1009.25 693.707 1009.25C748.984 1009.25 786.643 1007.45 838.224 987.931C877.017 973.253 928.544 939.957 970.895 939.957C1016.63 939.957 1062.05 929.296 1108.9 929.296C1159.48 929.296 1207.68 931.534 1257.26 940.549C1288.71 946.267 1337.04 969.537 1365.35 985.266C1393.63 1000.98 1453.69 981.457 1481.15 976.086C1542.6 964.063 1601.5 938.673 1633.36 881.321C1651.43 848.8 1660.85 791.251 1645.21 756.053C1636.29 735.985 1634.66 716.395 1610.56 711.04C1601.88 709.111 1589.19 707.762 1581.24 704.229C1571.04 699.697 1562.03 686.634 1551.92 684.387C1513.22 675.788 1473.49 684.091 1431.99 684.091" stroke="white" stroke-width="3" stroke-linecap="round"/>
</svg>
