<svg width="2111" height="2655" viewBox="0 0 2111 2655" fill="none" xmlns="http://www.w3.org/2000/svg">
<path d="M1211.4 674.458C1196.44 677.599 1181.38 682.782 1166.09 684.092C1175.4 684.092 1177.63 690.356 1179.43 699.338C1180.49 704.653 1183.93 713.31 1186.21 718.501C1190.09 727.368 1189.06 737.493 1190.86 746.982C1197.5 781.821 1203.03 814.466 1223.26 844.81C1228.8 853.12 1237.99 869.858 1250.05 866.09C1260.54 862.811 1272.35 862.219 1283.08 860.055C1305 855.636 1326.22 849.081 1347.14 841.21C1387.08 826.176 1420.99 797.724 1453.54 770.697C1488.17 741.943 1523.44 705.665 1543.43 664.823C1557.06 636.955 1568.12 607.435 1577.52 577.9C1581.2 566.331 1577.97 571.776 1571.59 573.983C1555.72 579.476 1541.1 586.596 1525.64 593.04C1473.17 614.903 1418.77 633.691 1363.23 645.871C1312.91 656.907 1261.81 663.879 1211.4 674.458Z" fill="black" stroke="white" stroke-width="3" stroke-linecap="round"/>
<path d="M669.856 628.72C659.536 623.665 648.167 612.804 636.257 607.337C636.078 607.639 635.838 607.882 635.646 608.177C635.378 608.587 635.189 609.043 635.035 609.512C634.939 609.805 634.868 610.183 634.86 610.491C634.85 610.852 634.966 611.152 635.035 611.497C635.083 611.737 635.217 611.968 635.296 612.199C635.362 612.392 635.442 612.578 635.549 612.752C635.77 613.115 636.171 613.322 636.458 613.609C636.514 613.665 636.572 613.719 636.632 613.773C637.303 620.235 638.882 627.503 640.528 633.06C644.651 646.976 645.26 662.993 648.786 677.422C655.331 704.195 663.861 729.355 674.514 754.922C687.395 785.836 708.093 810.853 732.216 834.222C749.208 850.683 777.15 856.786 798.916 863.867C830.833 874.249 864.24 883.5 897.909 885.994C910.552 886.931 918.672 868.419 926.389 859.843C931.104 854.605 932.202 844.858 935.495 838.457C942.72 824.408 945.951 810.465 951.693 795.789C958.418 778.603 960.295 760.072 965.986 742.429C971.02 726.823 967.892 707.438 967.892 691.185C967.892 684.532 968.715 682.186 962.175 682.186H904.156C864.258 682.186 825.994 672.231 786.741 665.881C764.924 662.352 744.36 656.968 723.851 648.836C705.858 641.701 687.351 637.289 669.856 628.72Z" fill="black"/>
<path d="M622.953 604.051C639.681 604.051 655.749 621.81 669.856 628.72C687.351 637.289 705.858 641.701 723.851 648.836C744.36 656.968 764.924 662.352 786.741 665.881C825.994 672.231 864.258 682.186 904.156 682.186H962.175C968.715 682.186 967.892 684.532 967.892 691.185C967.892 707.438 971.02 726.823 965.986 742.429C960.295 760.072 958.418 778.603 951.693 795.789C945.951 810.465 942.72 824.408 935.495 838.457C932.202 844.858 931.104 854.605 926.389 859.843C918.672 868.419 910.552 886.931 897.909 885.994C864.24 883.5 830.833 874.249 798.916 863.867C777.15 856.786 749.208 850.683 732.216 834.222C708.093 810.853 687.395 785.836 674.514 754.922C663.861 729.355 655.331 704.195 648.786 677.422C645.26 662.993 644.651 646.976 640.528 633.06C638.351 625.712 636.293 615.373 636.293 607.862M636.804 606.584C636.795 606.668 636.644 606.83 636.586 606.901C636.487 607.022 636.361 607.154 636.285 607.29C636.102 607.614 635.848 607.867 635.646 608.177C635.378 608.587 635.189 609.043 635.035 609.512C634.939 609.805 634.868 610.183 634.86 610.491C634.85 610.852 634.966 611.152 635.035 611.497C635.083 611.737 635.217 611.968 635.296 612.199C635.362 612.392 635.442 612.578 635.549 612.752C635.77 613.115 636.171 613.322 636.458 613.609C636.866 614.017 637.388 614.353 637.843 614.704C638.012 614.834 638.137 615.129 638.346 615.199" stroke="white" stroke-width="3" stroke-linecap="round"/>
</svg>
