<svg width="2111" height="2655" viewBox="0 0 2111 2655" fill="none" xmlns="http://www.w3.org/2000/svg">
<path d="M1531.09 847.383C1547.67 811.036 1568.02 732.892 1540.19 694.173C1537.6 697.318 1535.78 698.68 1535.78 707.273C1535.78 717.839 1535.43 726.188 1531.82 736.291C1527.29 748.989 1527.73 762.255 1522.59 775.276C1516.19 791.455 1509.64 807.181 1498.7 820.856C1483.05 840.41 1472.7 856.768 1450.19 867.608C1429.67 877.489 1404.45 891.937 1381.16 891.937C1360.08 891.937 1341.9 892.602 1322.68 881.971C1308.46 874.104 1298.14 861.693 1284.58 852.952C1276.1 847.488 1266.99 841.447 1260.25 833.899C1244.5 816.261 1229.86 796.459 1220.53 774.69C1208.56 746.757 1203.72 717.158 1196.05 687.341C1190.06 664.03 1194.29 736.033 1199.87 759.448C1216.7 830.148 1250.14 899.106 1322.39 925.059C1364.85 940.314 1416.96 934.738 1458.98 919.636C1499.27 905.159 1513.91 885.052 1531.09 847.383Z" fill="black"/>
<path d="M1535.78 688.806C1570.01 725.183 1548.47 809.266 1531.09 847.383C1513.91 885.052 1499.27 905.159 1458.98 919.636C1416.96 934.738 1364.85 940.314 1322.39 925.059C1250.14 899.106 1216.7 830.148 1199.87 759.448C1194.29 736.033 1190.06 664.03 1196.05 687.341C1203.72 717.158 1208.56 746.757 1220.53 774.69C1229.86 796.459 1244.5 816.261 1260.25 833.899C1266.99 841.447 1276.1 847.489 1284.58 852.952C1298.14 861.693 1308.46 874.104 1322.68 881.971C1341.9 892.602 1360.08 891.937 1381.16 891.937C1404.45 891.937 1429.67 877.489 1450.19 867.608C1472.7 856.768 1483.05 840.41 1498.7 820.856C1509.64 807.181 1516.19 791.455 1522.59 775.276C1527.73 762.255 1527.29 748.989 1531.82 736.291C1535.43 726.188 1535.78 717.839 1535.78 707.273C1535.78 695.167 1539.39 697.413 1543.69 688.806" stroke="white" stroke-width="3" stroke-linecap="round"/>
<path d="M836.106 899.851C893.539 863.303 874.955 774.133 852.291 720.7C843.968 729.581 844.607 759.919 844.607 771.905C844.607 780.097 846.183 790.21 844.02 798.139C841.312 808.069 832.012 828.954 823.502 834.486C807.022 845.198 794.035 858.701 775.871 866.875C759.761 874.124 739.087 870.832 721.791 870.832C677.176 870.832 636.189 860.421 596.336 840.495C561.486 823.069 532.589 785.789 522.178 748.309C519.802 739.757 514.847 730.601 510.16 723.101C507.684 719.14 506.967 733.817 506.789 734.972C502.397 763.519 510.938 797.242 524.23 822.908C551.808 876.163 604.743 895.011 660.822 905.713C701.098 913.399 744.456 911.845 785.397 912.894C804.689 913.389 819.579 910.368 836.106 899.851Z" fill="black"/>
<path d="M849.883 715.187C873.55 767.781 895.563 862.015 836.106 899.851C819.579 910.368 804.689 913.389 785.397 912.894C744.456 911.845 701.098 913.399 660.822 905.713C604.743 895.011 551.808 876.163 524.23 822.908C510.938 797.242 502.397 763.519 506.789 734.972C506.967 733.817 507.684 719.14 510.16 723.101C514.847 730.601 519.802 739.757 522.178 748.309C532.589 785.789 561.486 823.069 596.336 840.495C636.189 860.421 677.176 870.832 721.791 870.832C739.087 870.832 759.761 874.124 775.871 866.875C794.035 858.701 807.022 845.198 823.502 834.486C832.012 828.954 841.312 808.069 844.02 798.139C846.183 790.21 844.607 780.097 844.607 771.905C844.607 759.81 843.956 729.028 852.521 720.463" stroke="white" stroke-width="3" stroke-linecap="round"/>
</svg>
