<svg width="2111" height="2655" viewBox="0 0 2111 2655" fill="none" xmlns="http://www.w3.org/2000/svg">
<path d="M674.877 1851.63C674.354 1850.99 673.834 1850.35 673.316 1849.7C666.302 1849.03 659.956 1845.58 656.87 1839.41C655.265 1836.2 650.592 1834.15 650.592 1830.49C650.592 1828.77 649.564 1821.04 648.362 1820.08C644.865 1817.28 643.158 1813.13 643.158 1808.93C643.158 1801.06 649.457 1804.19 654.309 1801.5C662.877 1796.74 672.921 1814.8 677.025 1820.08C681.321 1825.61 687.022 1829.83 691.067 1835.61C695.805 1842.38 697.969 1850.04 703.622 1856.43C711.712 1865.56 722.245 1873.61 732.698 1879.88C761.124 1896.94 786.57 1915.5 819.594 1922.84C845.371 1928.56 870.747 1939.28 897.156 1941.92C922.986 1944.5 950.51 1942 976.536 1942C1010 1942 1043.52 1942.6 1076.98 1942C1112.54 1941.37 1149.61 1933.42 1184.36 1926.22C1206.47 1921.64 1230.46 1919.36 1251.68 1911.44C1262.71 1907.32 1272.22 1901.04 1282.66 1895.83C1301.42 1886.44 1316.41 1872.37 1332.88 1859.65C1349.67 1846.67 1365.26 1830.99 1382.93 1819.34C1393.27 1812.52 1404.89 1806.72 1414.65 1799.18C1419.45 1795.48 1426.59 1791.25 1429.68 1785.88C1432.92 1780.26 1436.55 1771.58 1442.74 1769.2C1450.07 1766.38 1456.22 1764.26 1464.71 1765.4C1473.46 1766.57 1477.98 1769.96 1475.45 1777.29C1469.29 1795.07 1460.18 1811.1 1451.24 1827.6C1432.41 1862.36 1408.31 1896.36 1371.62 1913.83C1332.52 1932.45 1293.47 1944.07 1251.1 1953.4C1219.48 1960.36 1189.19 1971.84 1158.51 1981.98C1137.48 1988.92 1115.56 1991.7 1093.83 1995.53C1063.15 2000.93 1029.02 1999.94 997.847 1998.17C954.308 1995.7 908.479 1983.16 868.494 1966.37C820.256 1946.12 769.019 1928.63 725.346 1899.05C706.182 1886.07 689.447 1869.52 674.877 1851.63Z" fill="black"/>
<path d="M646.132 1815.62C656.66 1826.7 665.233 1839.79 674.877 1851.63C689.447 1869.52 706.182 1886.07 725.346 1899.05C769.019 1928.63 820.256 1946.12 868.494 1966.37C908.479 1983.16 954.308 1995.7 997.847 1998.17C1029.02 1999.94 1063.15 2000.93 1093.83 1995.53C1115.56 1991.7 1137.48 1988.92 1158.51 1981.98C1189.19 1971.84 1219.48 1960.36 1251.1 1953.4C1293.47 1944.07 1332.52 1932.45 1371.62 1913.83C1408.31 1896.36 1432.41 1862.36 1451.24 1827.6C1460.18 1811.1 1469.29 1795.07 1475.45 1777.29C1477.98 1769.96 1473.46 1766.57 1464.71 1765.4C1456.22 1764.26 1450.07 1766.38 1442.74 1769.2C1436.55 1771.58 1432.92 1780.26 1429.68 1785.88C1426.59 1791.25 1419.45 1795.48 1414.65 1799.18C1404.89 1806.72 1393.27 1812.52 1382.93 1819.34C1365.26 1830.99 1349.67 1846.67 1332.88 1859.65C1316.41 1872.37 1301.42 1886.44 1282.66 1895.83C1272.22 1901.04 1262.71 1907.32 1251.68 1911.44C1230.46 1919.36 1206.47 1921.64 1184.36 1926.22C1149.61 1933.42 1112.54 1941.37 1076.98 1942C1043.52 1942.6 1010 1942 976.536 1942C950.51 1942 922.986 1944.5 897.156 1941.92C870.747 1939.28 845.371 1928.56 819.594 1922.84C786.57 1915.5 761.124 1896.94 732.698 1879.88C722.245 1873.61 711.712 1865.56 703.622 1856.43C697.969 1850.04 695.805 1842.38 691.067 1835.61C687.022 1829.83 681.321 1825.61 677.025 1820.08C672.921 1814.8 662.877 1796.74 654.309 1801.5C649.457 1804.19 643.158 1801.06 643.158 1808.93C643.158 1813.13 644.865 1817.28 648.362 1820.08C649.564 1821.04 650.592 1828.77 650.592 1830.49C650.592 1834.15 655.265 1836.2 656.87 1839.41C660.327 1846.32 667.874 1849.82 675.868 1849.82" stroke="white" stroke-width="3" stroke-linecap="round"/>
</svg>
