<svg width="2111" height="2655" viewBox="0 0 2111 2655" fill="none" xmlns="http://www.w3.org/2000/svg">
<path d="M708.932 1844.62C712.682 1836.25 716.302 1828.54 722.029 1822.86C706.181 1823.78 689.986 1827.08 675.069 1831.77C657.495 1837.3 641.1 1844.66 629.069 1859.31C612.255 1879.78 588.679 1904.46 582.456 1930.91C578.425 1948.04 580.967 1987.97 601.02 1995.58C634.535 2008.29 668.842 2006.19 704.036 2006.19C716.506 2006.19 729.126 2006.68 741.571 2005.78C756.356 2004.7 770.457 2000.04 785.124 1998.23C813.839 1994.68 842.462 1991.93 870.903 1985.99C912.851 1977.22 954.618 1968.66 995.543 1955.7C1065.74 1933.47 1132.75 1903.73 1201.78 1878.08C1225.21 1869.37 1247.6 1858.72 1271.34 1850.74C1292.95 1843.48 1313.73 1834.72 1334.58 1825.55C1346.93 1820.12 1359.36 1815.35 1371.92 1810.54L1372.93 1810.15C1375.62 1809.12 1379.1 1807.68 1380.78 1805.15C1383.4 1801.23 1397.97 1789.08 1391.49 1782.61C1389.79 1780.9 1381.83 1782.2 1379.66 1782.2C1361.86 1782.2 1344.89 1782.68 1327.24 1785.46C1302.57 1789.35 1276.88 1792.68 1253.19 1800.66C1222.54 1810.99 1193 1823.79 1162.92 1835.54C1115.56 1854.05 1068.48 1873.38 1022.78 1895.72C972.01 1920.54 922.038 1946.14 868.149 1963.86L867.586 1964.04C827.758 1977.14 784.426 1991.39 745.039 1970.89C720.912 1958.34 707.176 1941.95 699.141 1916.02C691.347 1890.87 698.535 1867.83 708.932 1844.62Z" fill="black"/>
<path d="M734.635 1815.25C720.478 1819.78 714.868 1831.37 708.932 1844.62C698.535 1867.83 691.347 1890.87 699.141 1916.02C707.176 1941.95 720.912 1958.34 745.039 1970.89C784.612 1991.49 828.166 1977 868.149 1963.86C922.038 1946.14 972.01 1920.54 1022.78 1895.72C1068.48 1873.38 1115.56 1854.05 1162.92 1835.54C1193 1823.79 1222.54 1810.99 1253.19 1800.66C1276.88 1792.68 1302.57 1789.35 1327.24 1785.46C1344.89 1782.68 1361.86 1782.2 1379.66 1782.2C1381.83 1782.2 1389.79 1780.9 1391.49 1782.61C1397.97 1789.08 1383.4 1801.23 1380.78 1805.15C1379.1 1807.68 1375.62 1809.12 1372.93 1810.15C1360.02 1815.1 1347.26 1819.97 1334.58 1825.55C1313.73 1834.72 1292.95 1843.48 1271.34 1850.74C1247.6 1858.72 1225.21 1869.37 1201.78 1878.08C1132.75 1903.73 1065.74 1933.47 995.543 1955.7C954.618 1968.66 912.851 1977.22 870.903 1985.99C842.462 1991.93 813.839 1994.68 785.124 1998.23C770.457 2000.04 756.356 2004.7 741.571 2005.78C729.126 2006.68 716.506 2006.19 704.036 2006.19C668.842 2006.19 634.535 2008.29 601.02 1995.58C580.967 1987.97 578.425 1948.04 582.456 1930.91C588.679 1904.46 612.255 1879.78 629.069 1859.31C641.1 1844.66 657.495 1837.3 675.069 1831.77C692.804 1826.19 712.348 1822.59 730.964 1822.59" stroke="white" stroke-width="3" stroke-linecap="round"/>
</svg>
