<svg width="2111" height="2655" viewBox="0 0 2111 2655" fill="none" xmlns="http://www.w3.org/2000/svg">
<path d="M623.946 1802.26C676.007 1783.8 728.448 1779.9 782.374 1779.13C813.523 1772.35 844.839 1765.39 876.009 1759.62C889.108 1757.19 898.876 1756.07 912.138 1757.73C932.124 1760.22 951.76 1763.1 971.373 1767.81C1017.33 1778.84 1064.25 1785.56 1110.43 1795.95C1169.41 1809.23 1228.85 1821.52 1288.34 1832.29C1347.8 1843.06 1407.72 1855.46 1463.21 1879.98C1481.51 1888.06 1499.02 1893.46 1499.02 1915.05C1499.02 1921.42 1498.87 1927.27 1497.55 1933.54C1494.12 1949.96 1471.83 1968.08 1457.33 1974.6C1437.75 1983.42 1413.78 1986.25 1392.95 1990.88C1384.1 1992.85 1376.36 1999.21 1367.53 2001.6C1360.3 2003.55 1353.04 2005.33 1345.69 2006.74C1324.62 2010.79 1302.97 2017.26 1281.62 2019.03C1237.75 2022.67 1193.25 2020.92 1149.29 2020.92C1094.09 2020.92 1038.86 2021.46 983.661 2020.71C902.725 2019.62 823.005 2016.61 743.676 2000.13C720.107 1995.23 695.608 1993.55 672.364 1987.31C649.267 1981.11 626.774 1971.98 604.412 1963.58C566.667 1949.4 520.203 1933.46 510.728 1889.64C507.889 1876.51 513.236 1867.38 515.875 1855.5C517.397 1848.65 524.328 1844.88 530.263 1841.75C560.149 1825.99 592.122 1813.54 623.946 1802.26Z" fill="black"/>
<path d="M956.459 1780.83C947.993 1777.27 937.016 1778.94 928.207 1778.94C890.153 1778.94 852.098 1778.94 814.044 1778.94C748.88 1778.94 686.142 1780.2 623.946 1802.26C592.122 1813.54 560.149 1825.99 530.263 1841.75C524.328 1844.88 517.397 1848.65 515.875 1855.5C513.236 1867.38 507.889 1876.51 510.728 1889.64C520.203 1933.46 566.667 1949.4 604.412 1963.58C626.774 1971.98 649.267 1981.11 672.364 1987.31C695.608 1993.55 720.107 1995.23 743.676 2000.13C823.005 2016.61 902.725 2019.62 983.661 2020.71C1038.86 2021.46 1094.09 2020.92 1149.29 2020.92C1193.25 2020.92 1237.75 2022.67 1281.62 2019.03C1302.97 2017.26 1324.62 2010.79 1345.69 2006.74C1353.04 2005.33 1360.3 2003.55 1367.53 2001.6C1376.36 1999.21 1384.1 1992.85 1392.95 1990.88C1413.78 1986.25 1437.75 1983.42 1457.33 1974.6C1471.83 1968.08 1494.12 1949.96 1497.55 1933.54C1498.87 1927.27 1499.02 1921.42 1499.02 1915.05C1499.02 1893.46 1481.51 1888.06 1463.21 1879.98C1407.72 1855.46 1347.8 1843.06 1288.34 1832.29C1228.85 1821.52 1169.41 1809.23 1110.43 1795.95C1064.25 1785.56 1017.33 1778.84 971.373 1767.81C951.76 1763.1 932.124 1760.22 912.138 1757.73C898.876 1756.07 889.108 1757.19 876.009 1759.62C839.282 1766.42 802.352 1774.87 765.732 1782.72C749.948 1786.1 733.453 1789 718.26 1794.06" stroke="white" stroke-width="3" stroke-linecap="round"/>
</svg>
