<svg width="2111" height="2655" viewBox="0 0 2111 2655" fill="none" xmlns="http://www.w3.org/2000/svg">
<path d="M975.904 1940.65C985.932 1938.49 996.09 1935.99 1006.28 1933.88C1007.69 1933.81 1009.1 1933.77 1010.51 1933.77C1013.26 1933.77 1016.15 1934.76 1018.94 1934.99C1029.84 1935.9 1040.9 1935.42 1051.83 1935.42C1058.11 1935.42 1064.68 1935.98 1070.87 1934.81C1079.93 1933.1 1089.11 1932.16 1098.26 1931.05C1107.95 1929.88 1117.76 1928.06 1127.51 1927.78C1137.91 1927.48 1148.35 1927.72 1158.75 1927.72C1173.63 1927.72 1188.51 1927.76 1203.38 1927.72C1212.35 1927.69 1220.96 1927.23 1229.76 1925.49C1252.97 1920.89 1276.25 1916.32 1299.54 1912.19C1319.64 1908.63 1341.14 1905.01 1359.03 1894.65C1364.82 1891.29 1370.94 1888.07 1376.14 1883.82C1378.26 1882.09 1379.68 1880.12 1379.93 1877.31C1380.49 1871.03 1379.15 1862.39 1373.64 1858.52C1367.38 1854.12 1357.73 1855.09 1350.59 1855.09C1336.9 1855.09 1323 1856.62 1309.66 1859.8C1289.5 1864.61 1269.07 1868.9 1248.62 1872.27C1235.39 1874.45 1222.25 1875.88 1208.82 1876C1198.45 1876.09 1188.17 1876.57 1177.92 1878.26C1171.05 1879.4 1164.4 1880.71 1157.41 1881.1C1148.54 1881.61 1139.65 1881.29 1130.79 1881.9C1117.19 1882.84 1104.1 1886.66 1090.65 1888.53C1074.34 1890.8 1058.26 1893.14 1042.17 1896.66C1032.32 1898.82 1022.38 1900.74 1012.46 1902.59C993.636 1906.11 974.67 1909.36 955.975 1913.47C924.838 1920.32 893.232 1925.15 862.258 1932.67C849.758 1935.7 836.965 1936.86 824.477 1939.82C813.703 1942.38 802.873 1944.33 792.016 1946.49C780.104 1948.85 768.141 1951.11 756.253 1953.58C750.802 1954.71 745.448 1956.28 739.899 1956.88C736.262 1957.27 732.328 1958.65 730.21 1961.71C729.851 1962.23 728.632 1962.84 729.109 1963.05C731.644 1964.19 734.531 1964.22 737.21 1964.86C743.961 1966.46 749.759 1967.88 756.742 1967.88H790.823C807.082 1967.88 823.081 1968.45 839.088 1965.13C849.714 1962.93 860.362 1960.85 870.969 1958.56C884.448 1955.65 898.031 1953.67 911.623 1951.41C917.449 1950.44 923.507 1951.67 929.26 1950.49C932.616 1949.8 935.969 1948.91 939.347 1948.2C951.524 1945.64 963.74 1943.26 975.904 1940.65Z" fill="black"/>
<path d="M1026.22 1930.47C1009.4 1932.57 992.473 1937.09 975.904 1940.65C963.74 1943.26 951.524 1945.64 939.347 1948.2C935.969 1948.91 932.616 1949.8 929.26 1950.49C923.507 1951.67 917.449 1950.44 911.623 1951.41C898.031 1953.67 884.448 1955.65 870.969 1958.56C860.362 1960.85 849.714 1962.93 839.088 1965.13C823.081 1968.45 807.082 1967.88 790.823 1967.88C779.463 1967.88 768.102 1967.88 756.742 1967.88C749.759 1967.88 743.961 1966.46 737.21 1964.86C734.531 1964.22 731.644 1964.19 729.109 1963.05C728.632 1962.84 729.851 1962.23 730.21 1961.71C732.328 1958.65 736.262 1957.27 739.899 1956.88C745.448 1956.28 750.802 1954.71 756.253 1953.58C768.141 1951.11 780.104 1948.85 792.016 1946.49C802.873 1944.33 813.703 1942.38 824.477 1939.82C836.965 1936.86 849.758 1935.7 862.258 1932.67C893.232 1925.15 924.838 1920.32 955.975 1913.47C974.67 1909.36 993.636 1906.11 1012.46 1902.59C1022.38 1900.74 1032.32 1898.82 1042.17 1896.66C1058.26 1893.14 1074.34 1890.8 1090.65 1888.53C1104.1 1886.66 1117.19 1882.84 1130.79 1881.9C1139.65 1881.29 1148.54 1881.61 1157.41 1881.1C1164.4 1880.71 1171.05 1879.4 1177.92 1878.26C1188.17 1876.57 1198.45 1876.09 1208.82 1876C1222.25 1875.88 1235.39 1874.45 1248.62 1872.27C1269.07 1868.9 1289.5 1864.61 1309.66 1859.8C1323 1856.62 1336.9 1855.09 1350.59 1855.09C1357.73 1855.09 1367.38 1854.12 1373.64 1858.52C1379.15 1862.39 1380.49 1871.03 1379.93 1877.31C1379.68 1880.12 1378.26 1882.09 1376.14 1883.82C1370.94 1888.07 1364.82 1891.29 1359.03 1894.65C1341.14 1905.01 1319.64 1908.63 1299.54 1912.19C1276.25 1916.32 1252.97 1920.89 1229.76 1925.49C1220.96 1927.23 1212.35 1927.69 1203.38 1927.72C1188.51 1927.76 1173.63 1927.72 1158.75 1927.72C1148.35 1927.72 1137.91 1927.48 1127.51 1927.78C1117.76 1928.06 1107.95 1929.88 1098.26 1931.05C1089.11 1932.16 1079.93 1933.1 1070.87 1934.81C1064.68 1935.98 1058.11 1935.42 1051.83 1935.42C1040.9 1935.42 1029.84 1935.9 1018.94 1934.99C1016.15 1934.76 1013.26 1933.77 1010.51 1933.77C1003.3 1933.77 996.077 1934.87 988.803 1934.87" stroke="white" stroke-width="3" stroke-linecap="round"/>
</svg>
