<svg width="2111" height="2655" viewBox="0 0 2111 2655" fill="none" xmlns="http://www.w3.org/2000/svg">
<path d="M925.849 1775.23C927.23 1775 928.608 1774.81 929.983 1774.64C941.108 1764.37 961.882 1753.6 976.364 1750.38C994.789 1746.29 1017.63 1747.45 1036.6 1749.19C1061.06 1751.44 1085.91 1756.86 1108.66 1766.06C1125.62 1772.92 1138.8 1781.05 1146.8 1797.6C1153.59 1811.66 1156.32 1827.87 1160.37 1842.89C1164.64 1858.76 1166.62 1875.96 1164.95 1892.4C1162.23 1919.07 1144.4 1947.74 1124.34 1964.64C1102.25 1983.24 1074.33 1993.37 1046.59 2000.3C981.562 2016.56 907.615 1998.58 858.555 1952.72C815.104 1912.1 815.508 1843.36 860.939 1805.3C879.046 1790.13 902.403 1779.07 925.849 1775.23Z" fill="black"/>
<path d="M987.091 1775.23C966.565 1775.23 946.555 1771.84 925.849 1775.23C902.403 1779.07 879.046 1790.13 860.939 1805.3C815.508 1843.36 815.104 1912.1 858.555 1952.72C907.615 1998.58 981.562 2016.56 1046.59 2000.3C1074.33 1993.37 1102.25 1983.24 1124.34 1964.64C1144.4 1947.74 1162.23 1919.07 1164.95 1892.4C1166.62 1875.96 1164.64 1858.76 1160.37 1842.89C1156.32 1827.87 1153.59 1811.66 1146.8 1797.6C1138.8 1781.05 1125.62 1772.92 1108.66 1766.06C1085.91 1756.86 1061.06 1751.44 1036.6 1749.19C1017.63 1747.45 994.789 1746.29 976.364 1750.38C961.214 1753.75 939.179 1765.38 928.507 1776.05C919.024 1785.54 904.934 1786.54 894.677 1793.38" stroke="white" stroke-width="3" stroke-linecap="round"/>
</svg>
