<svg width="2111" height="2655" viewBox="0 0 2111 2655" fill="none" xmlns="http://www.w3.org/2000/svg">
<path d="M969.401 1235.93V1217.07H989.456C1000.01 1217.07 1007.23 1214.99 1017.29 1213.08C1024.46 1211.71 1061.14 1203.28 1045.34 1219.07C1042.8 1221.62 1045.33 1222 1047.93 1222.22C1048.29 1219.76 1048.76 1217.53 1049.31 1216.08C1050.2 1213.73 1050.72 1207.88 1050.76 1211.99C1050.8 1215.5 1050.79 1219.01 1050.79 1222.53C1051 1222.58 1051.19 1222.63 1051.34 1222.7C1054.72 1224.2 1052.72 1228.11 1050.77 1231.37V1252.21C1050.77 1259.97 1052.83 1260.18 1056.19 1266.07C1059.62 1272.06 1063.04 1278.46 1065.84 1284.75C1068.62 1291.02 1066.26 1297.44 1069.76 1303.74C1073.51 1310.49 1072.47 1317.94 1072.47 1325.44C1072.47 1334.1 1077 1341.36 1077.89 1349.85C1078.58 1356.36 1082.87 1363.14 1086.03 1368.84C1091.16 1378.06 1090.88 1389.23 1095.37 1398.67C1100.65 1409.76 1110.21 1418.45 1114.66 1430.01C1117.66 1437.81 1123.4 1442.76 1126.71 1450.2C1129.16 1455.72 1133.39 1459.25 1137.26 1463.77C1140.89 1467.99 1142.65 1473.02 1146 1477.33C1149.2 1481.44 1153.57 1484.47 1156.55 1488.78C1159.95 1493.7 1162.09 1499.4 1164.69 1504.75C1168.82 1513.26 1173.12 1524.81 1168.91 1534.29C1166.74 1539.17 1163.08 1549.96 1156.55 1549.96C1152.47 1549.96 1149.39 1546.16 1145.4 1545.44C1141.5 1544.73 1137.28 1545.14 1133.34 1545.14H1112.85H1059.81C1048.56 1545.14 1038.81 1550.18 1027.87 1550.56C1008.84 1551.22 989.655 1550.56 970.607 1550.56H917.867C910.044 1550.56 905.938 1551.64 898.881 1554.78C893.347 1557.24 885.816 1555.98 879.895 1555.98C875.559 1555.98 872.816 1557.29 868.745 1558.4C863.166 1559.92 858.45 1557.26 853.074 1556.29C846.03 1555.01 843.379 1556.6 838.005 1551.77C835.168 1549.21 831.535 1548.85 829.567 1545.14C827.766 1541.73 828.878 1537.73 827.156 1534.29C823.407 1526.79 817.512 1524.52 817.512 1515.3C817.512 1507.8 816.476 1500.35 820.225 1493.6C823.805 1487.16 821.962 1482.98 828.361 1478.83C836.396 1473.64 840.509 1462.47 847.348 1455.63C851.478 1451.5 855.255 1447.35 857.895 1442.07C859.691 1438.48 860.474 1434.22 863.32 1431.22C871.051 1423.06 878.582 1419.98 883.813 1409.52C887.357 1402.43 891.685 1396.81 895.868 1390.23C900.175 1383.46 899.861 1373.98 901.895 1366.42C903.841 1359.2 906.786 1353.58 910.936 1347.44C918.051 1336.91 924.065 1325.79 931.128 1315.19C937.011 1306.37 942.746 1298.16 947.401 1288.07C951.218 1279.8 954.482 1271.2 958.552 1263.06C963.475 1253.21 969.401 1247.26 969.401 1235.93Z" fill="black"/>
<path d="M969.401 1214.23C969.401 1221.47 969.401 1228.7 969.401 1235.93C969.401 1247.26 963.475 1253.21 958.552 1263.06C954.482 1271.2 951.218 1279.8 947.401 1288.07C942.746 1298.16 937.011 1306.37 931.128 1315.19C924.065 1325.79 918.051 1336.91 910.936 1347.44C906.786 1353.58 903.841 1359.2 901.895 1366.42C899.861 1373.98 900.175 1383.46 895.868 1390.23C891.685 1396.81 887.357 1402.43 883.813 1409.52C878.582 1419.98 871.051 1423.06 863.32 1431.22C860.474 1434.22 859.691 1438.48 857.895 1442.07C855.255 1447.35 851.478 1451.5 847.348 1455.63C840.509 1462.47 836.396 1473.64 828.361 1478.83C821.962 1482.98 823.805 1487.16 820.225 1493.6C816.476 1500.35 817.512 1507.8 817.512 1515.3C817.512 1524.52 823.407 1526.79 827.156 1534.29C828.878 1537.73 827.766 1541.73 829.567 1545.14C831.535 1548.85 835.168 1549.21 838.005 1551.77C843.379 1556.6 846.03 1555.01 853.074 1556.29C858.45 1557.26 863.166 1559.92 868.745 1558.4C872.816 1557.29 875.559 1555.98 879.895 1555.98C885.816 1555.98 893.347 1557.24 898.881 1554.78C905.938 1551.64 910.044 1550.56 917.867 1550.56C935.447 1550.56 953.027 1550.56 970.607 1550.56C989.655 1550.56 1008.84 1551.22 1027.87 1550.56C1038.81 1550.18 1048.56 1545.14 1059.81 1545.14C1077.49 1545.14 1095.17 1545.14 1112.85 1545.14C1119.68 1545.14 1126.51 1545.14 1133.34 1545.14C1137.28 1545.14 1141.5 1544.73 1145.4 1545.44C1149.39 1546.16 1152.47 1549.96 1156.55 1549.96C1163.08 1549.96 1166.74 1539.17 1168.91 1534.29C1173.12 1524.81 1168.82 1513.26 1164.69 1504.75C1162.09 1499.4 1159.95 1493.7 1156.55 1488.78C1153.57 1484.47 1149.2 1481.44 1146 1477.33C1142.65 1473.02 1140.89 1467.99 1137.26 1463.77C1133.39 1459.25 1129.16 1455.72 1126.71 1450.2C1123.4 1442.76 1117.66 1437.81 1114.66 1430.01C1110.21 1418.45 1100.65 1409.76 1095.37 1398.67C1090.88 1389.23 1091.16 1378.06 1086.03 1368.84C1082.87 1363.14 1078.58 1356.36 1077.89 1349.85C1077 1341.36 1072.47 1334.1 1072.47 1325.44C1072.47 1317.94 1073.51 1310.49 1069.76 1303.74C1066.26 1297.44 1068.62 1291.02 1065.84 1284.75C1063.04 1278.46 1059.62 1272.06 1056.19 1266.07C1052.83 1260.18 1050.77 1259.97 1050.77 1252.21C1050.77 1244.97 1050.77 1237.74 1050.77 1230.51C1050.77 1224.34 1050.82 1218.16 1050.76 1211.99C1050.72 1207.88 1050.2 1213.73 1049.31 1216.08C1047.1 1221.9 1046.16 1240.39 1048.81 1234.75C1050.29 1231.58 1056.07 1224.8 1051.34 1222.7C1049.36 1221.82 1041.47 1222.95 1045.34 1219.07C1061.14 1203.28 1024.46 1211.71 1017.29 1213.08C1007.23 1214.99 1000.01 1217.07 989.456 1217.07C981.214 1217.07 972.973 1217.07 964.731 1217.07" stroke="white" stroke-width="3" stroke-linecap="round"/>
</svg>
