<svg width="2111" height="2655" viewBox="0 0 2111 2655" fill="none" xmlns="http://www.w3.org/2000/svg">
<path d="M887.216 1245.9C893.72 1223.13 896.939 1200.47 897.171 1175.81C904.018 1174.87 910.26 1172.92 917.499 1172.92C927.697 1172.92 934.788 1179.69 944.585 1179.69C963.428 1179.69 975.446 1189.29 995.371 1180.44C1015.72 1171.39 1036 1179.84 1036 1203.39C1036 1214.03 1038.6 1222.96 1039.39 1233.11C1039.78 1238.26 1045.68 1261.92 1047.85 1264.52C1052.21 1269.75 1057.53 1281.71 1059.7 1288.22C1064.64 1303.04 1076.66 1310.09 1084.9 1322.08C1103.82 1349.58 1089.31 1389.06 1093.74 1420.07C1096.98 1442.72 1101.68 1468.82 1118.95 1486.09C1130.45 1497.6 1140.96 1509.02 1140.96 1526.54C1140.96 1536.41 1124.76 1541 1118.01 1545.34C1049.18 1589.59 962.882 1586.01 883.642 1572.43C854.038 1567.36 785.915 1560.1 782.07 1521.64C780.858 1509.53 775.814 1499.41 781.318 1487.79L781.651 1487.08C787.61 1474.51 793.277 1462.55 795.801 1448.66C798.376 1434.5 805.77 1427.36 805.77 1411.61C805.77 1396.85 792.227 1381.97 792.227 1365.9C792.227 1337.99 808.542 1315.73 827.777 1296.49C839.296 1284.98 852.317 1274.01 866.525 1266.02C875.408 1261.03 884.389 1255.79 887.216 1245.9Z" fill="black"/>
<path d="M897.185 1172.92C897.185 1198.7 893.973 1222.24 887.216 1245.9C884.389 1255.79 875.408 1261.03 866.525 1266.02C852.317 1274.01 839.296 1284.98 827.777 1296.49C808.542 1315.73 792.227 1337.99 792.227 1365.9C792.227 1381.97 805.77 1396.85 805.77 1411.61C805.77 1427.36 798.376 1434.5 795.801 1448.66C793.23 1462.8 787.397 1474.95 781.318 1487.79C775.814 1499.41 780.858 1509.53 782.07 1521.64C785.915 1560.1 854.038 1567.36 883.642 1572.43C962.882 1586.01 1049.18 1589.59 1118.01 1545.34C1124.76 1541 1140.96 1536.41 1140.96 1526.54C1140.96 1509.02 1130.45 1497.6 1118.95 1486.09C1101.68 1468.82 1096.98 1442.72 1093.74 1420.07C1089.31 1389.06 1103.82 1349.58 1084.9 1322.08C1076.66 1310.09 1064.64 1303.04 1059.7 1288.22C1057.53 1281.71 1052.21 1269.75 1047.85 1264.52C1045.68 1261.92 1039.78 1238.26 1039.39 1233.11C1038.6 1222.96 1036 1214.03 1036 1203.39C1036 1179.84 1015.72 1171.39 995.371 1180.44C975.446 1189.29 963.428 1179.69 944.585 1179.69C934.788 1179.69 927.697 1172.92 917.499 1172.92C907.961 1172.92 900.154 1176.3 890.413 1176.3" stroke="white" stroke-width="3" stroke-linecap="round"/>
</svg>
