<svg width="2111" height="2655" viewBox="0 0 2111 2655" fill="none" xmlns="http://www.w3.org/2000/svg">
<path d="M824.495 1250.82C838.82 1250.4 852.858 1250.25 866.771 1249.51C884.268 1253.65 901.374 1244.03 920.391 1244.03C933.027 1244.03 942.104 1247.33 954.862 1247.33C964.457 1247.33 972.813 1247.49 981.449 1252.28C987.183 1255.47 994.005 1251.87 999.601 1254.67C1010.04 1259.88 1028.51 1256.6 1036.64 1263.1C1039.27 1265.21 1054.01 1266.46 1057.54 1267.14C1072.62 1270.01 1086.26 1275.08 1100.08 1281.8C1117.7 1290.37 1132.95 1293.54 1152.52 1293.54C1160.35 1293.54 1173.85 1295.63 1180.39 1300.14C1199.47 1313.3 1211.33 1333.63 1202.39 1356.61C1198.23 1367.33 1196.06 1378.88 1191.03 1389.25C1186.35 1398.88 1178.21 1406.63 1174.34 1415.65C1168.62 1429 1156.45 1447.77 1143.35 1455.26C1127.36 1464.4 1116.48 1475.32 1096.78 1480.01C1004.36 1502.02 913.176 1480.04 825.779 1449.03C769.407 1429.02 729.68 1387.57 696.329 1339.93C685.355 1324.25 687.848 1298.35 700.913 1285.29C727.508 1258.69 790.094 1251.83 824.495 1250.82Z" fill="black"/>
<path d="M966.597 1234.13C952.024 1234.13 940.32 1235.66 926.258 1240C892.492 1250.42 859.34 1249.79 824.495 1250.82C790.094 1251.83 727.508 1258.69 700.913 1285.29C687.848 1298.35 685.355 1324.25 696.329 1339.93C729.68 1387.57 769.407 1429.02 825.779 1449.03C913.176 1480.04 1004.36 1502.02 1096.78 1480.01C1116.48 1475.32 1127.36 1464.4 1143.35 1455.26C1156.45 1447.77 1168.62 1429 1174.34 1415.65C1178.21 1406.63 1186.35 1398.88 1191.03 1389.25C1196.06 1378.88 1198.23 1367.33 1202.39 1356.61C1211.33 1333.63 1199.47 1313.3 1180.39 1300.14C1173.85 1295.63 1160.35 1293.54 1152.52 1293.54C1132.95 1293.54 1117.7 1290.37 1100.08 1281.8C1086.26 1275.08 1072.62 1270.01 1057.54 1267.14C1054.01 1266.46 1039.27 1265.21 1036.64 1263.1C1028.51 1256.6 1010.04 1259.88 999.601 1254.67C994.005 1251.87 987.183 1255.47 981.449 1252.28C972.813 1247.49 964.457 1247.33 954.862 1247.33C942.104 1247.33 933.027 1244.03 920.391 1244.03C896.92 1244.03 876.361 1258.68 854.383 1244.03" stroke="white" stroke-width="3" stroke-linecap="round"/>
</svg>
