<svg width="2111" height="2655" viewBox="0 0 2111 2655" fill="none" xmlns="http://www.w3.org/2000/svg">
<path d="M1028.99 1308.09C1037.28 1258.38 1023.87 1205.55 1009.58 1157.92C1023.95 1170.73 1025.56 1196.15 1031.51 1216.4C1034.29 1225.84 1046.62 1232.73 1051.87 1240.9C1058.11 1250.61 1063.4 1259.52 1067.18 1270.44C1071.47 1282.82 1069.03 1296.11 1071.32 1308.99C1074.17 1324.94 1079.12 1342.91 1079.43 1359.07C1080.05 1391.49 1109.8 1430.54 1093.3 1460.67C1076.47 1491.41 1029.35 1505.96 996.567 1506.42C975.109 1506.72 941.597 1506.93 943.246 1477.24C944.097 1461.93 957.968 1447.46 963.422 1434.37C970.633 1417.06 985.582 1413.27 995.126 1398.7C1004.22 1384.82 1007.11 1367.81 1013.14 1352.58C1019 1337.79 1026.35 1323.96 1028.99 1308.09Z" fill="black"/>
<path d="M1008.1 1152.99C1022.91 1201.89 1037.56 1256.66 1028.99 1308.09C1026.35 1323.96 1019 1337.79 1013.14 1352.58C1007.11 1367.81 1004.22 1384.82 995.126 1398.7C985.582 1413.27 970.633 1417.06 963.422 1434.37C957.968 1447.46 944.097 1461.93 943.246 1477.24C941.597 1506.93 975.109 1506.72 996.567 1506.42C1029.35 1505.96 1076.47 1491.41 1093.3 1460.67C1109.8 1430.54 1080.05 1391.49 1079.43 1359.07C1079.12 1342.91 1074.17 1324.94 1071.32 1308.99C1069.03 1296.11 1071.47 1282.82 1067.18 1270.44C1063.4 1259.52 1058.11 1250.61 1051.87 1240.9C1046.62 1232.73 1034.29 1225.84 1031.51 1216.4C1023.2 1188.12 1023.36 1149.75 985.399 1149.75" stroke="white" stroke-width="3" stroke-linecap="round"/>
</svg>
