<svg width="2111" height="2655" viewBox="0 0 2111 2655" fill="none" xmlns="http://www.w3.org/2000/svg">
<path d="M862.07 1192.67C864.953 1183.19 873.463 1174.45 875.97 1164.82C904.714 1164.2 933.156 1161.71 961.282 1161.71C975.654 1161.71 987.795 1153.82 999.663 1165.69C1008.34 1174.36 1011.76 1186.61 1018.31 1194.48C1031.85 1210.73 1031.96 1238.35 1042.75 1256.94C1052.24 1273.27 1059.96 1299.13 1065.56 1317.41C1070.43 1333.29 1079.78 1347.66 1083.31 1363.75C1087.12 1381.18 1087.49 1399.63 1095.07 1416.08C1101.67 1430.36 1110.83 1446.17 1111.19 1462.24C1111.72 1486.04 1111.42 1510.4 1083.49 1510.4C1035.4 1510.4 983.046 1504.37 935.936 1512.93C908.506 1517.92 876.559 1526.69 849.035 1526.69C824.85 1526.69 783.681 1507.15 772.272 1484.33C763.039 1465.86 770.734 1438.09 777.16 1420.24C787.243 1392.23 795.254 1364.93 808.119 1337.68C815.131 1322.83 816.001 1305.5 824.413 1291.34C835.33 1272.95 843.846 1249.14 850.302 1228.69C854.181 1216.41 858.333 1204.95 862.07 1192.67Z" fill="black"/>
<path d="M876.554 1161.71C875.344 1172.59 865.261 1182.18 862.07 1192.67C858.333 1204.95 854.181 1216.41 850.302 1228.69C843.846 1249.14 835.33 1272.95 824.413 1291.34C816.001 1305.5 815.131 1322.83 808.119 1337.68C795.254 1364.93 787.243 1392.23 777.16 1420.24C770.734 1438.09 763.039 1465.86 772.272 1484.33C783.681 1507.15 824.85 1526.69 849.035 1526.69C876.559 1526.69 908.506 1517.92 935.936 1512.93C983.046 1504.37 1035.4 1510.4 1083.49 1510.4C1111.42 1510.4 1111.72 1486.04 1111.19 1462.24C1110.83 1446.17 1101.67 1430.36 1095.07 1416.08C1087.49 1399.63 1087.12 1381.18 1083.31 1363.75C1079.78 1347.66 1070.43 1333.29 1065.56 1317.41C1059.96 1299.13 1052.24 1273.27 1042.75 1256.94C1031.96 1238.35 1031.85 1210.73 1018.31 1194.48C1011.76 1186.61 1008.34 1174.36 999.663 1165.69C987.795 1153.82 975.654 1161.71 961.282 1161.71C929.101 1161.71 896.506 1164.97 863.518 1164.97" stroke="white" stroke-width="3" stroke-linecap="round"/>
</svg>
