<svg width="2111" height="2655" viewBox="0 0 2111 2655" fill="none" xmlns="http://www.w3.org/2000/svg">
<path d="M1016.59 1208.84C1022.77 1190.3 1030.76 1170.47 1033.8 1150.57C1044.94 1143.39 1056.94 1141.15 1071.97 1141.15C1083.03 1141.15 1093.88 1144.23 1104.44 1144.23C1109.11 1144.23 1135.07 1149.73 1137.26 1153.46C1144 1164.91 1152.72 1168.85 1155.21 1182.52C1159.63 1206.83 1166.7 1232.72 1173.49 1256.7C1188.68 1310.29 1208.68 1360.74 1242.89 1405.57C1262.1 1430.74 1281.45 1456.83 1301.17 1480.94C1312.53 1494.83 1330.76 1526.25 1304.25 1538.03C1282.97 1547.49 1266.72 1550.34 1242.72 1550.34C1226.62 1550.34 1191.27 1557.17 1179.65 1542.65C1177.55 1540.02 1167.89 1538.82 1164.26 1536.49C1157.11 1531.89 1151.63 1526.38 1143.41 1523.33C1130.77 1518.65 1121.12 1510.31 1108.89 1504.87C1099.03 1500.49 1090.44 1506.05 1082.91 1502.82C1075.26 1499.54 1068.04 1511.16 1062.74 1514.1C1036.38 1528.74 1025.35 1501.11 1001.21 1501.11C953.98 1501.11 917.505 1536.49 869.598 1538.03C846.181 1538.79 792 1537.25 792 1505.56C792 1488.97 801.476 1468.57 808.75 1453.6C818.147 1434.25 828.389 1424.07 841.054 1407.45C861.276 1380.91 892.136 1367.13 915.234 1344.04C931.221 1328.05 951.75 1316.55 965.997 1298.74C975.927 1286.33 983.949 1272.12 993.686 1259.6C1005.48 1244.44 1010.43 1227.31 1016.59 1208.84Z" fill="black"/>
<path d="M1035.05 1135C1035.05 1160.04 1024.38 1185.46 1016.59 1208.84C1010.43 1227.31 1005.48 1244.44 993.686 1259.6C983.949 1272.12 975.927 1286.33 965.997 1298.74C951.75 1316.55 931.221 1328.05 915.234 1344.04C892.136 1367.13 861.276 1380.91 841.054 1407.45C828.389 1424.07 818.147 1434.25 808.75 1453.6C801.476 1468.57 792 1488.97 792 1505.56C792 1537.25 846.181 1538.79 869.598 1538.03C917.505 1536.49 953.98 1501.11 1001.21 1501.11C1025.35 1501.11 1036.38 1528.74 1062.74 1514.1C1068.04 1511.16 1075.26 1499.54 1082.91 1502.82C1090.44 1506.05 1099.03 1500.49 1108.89 1504.87C1121.12 1510.31 1130.77 1518.65 1143.41 1523.33C1151.63 1526.38 1157.11 1531.89 1164.26 1536.49C1167.89 1538.82 1177.55 1540.02 1179.65 1542.65C1191.27 1557.17 1226.62 1550.34 1242.72 1550.34C1266.72 1550.34 1282.97 1547.49 1304.25 1538.03C1330.76 1526.25 1312.53 1494.83 1301.17 1480.94C1281.45 1456.83 1262.1 1430.74 1242.89 1405.57C1208.68 1360.74 1188.68 1310.29 1173.49 1256.7C1166.7 1232.72 1159.63 1206.83 1155.21 1182.52C1152.72 1168.85 1144 1164.91 1137.26 1153.46C1135.07 1149.73 1109.11 1144.23 1104.44 1144.23C1093.88 1144.23 1083.03 1141.15 1071.97 1141.15C1051.88 1141.15 1037.2 1145.16 1022.74 1159.61" stroke="white" stroke-width="3" stroke-linecap="round"/>
</svg>
